<?xml version="1.0" encoding="UTF-8" standalone="no"?>
<svg viewBox="0 0 744.09447 1052.362179" xmlns="http://www.w3.org/2000/svg">
<path d="m144.07157,236.6404h456.1035a58.41828,58.41828 0 0,1 58.41828,58.41828v416.77245a58.41828,58.41828 0 0,1 -58.41828,58.41828h-456.1035a58.41828,58.41828 0 0,1 -58.41828-58.41828v-416.77245a58.41828,58.41828 0 0,1 58.41828-58.41828" fill="#fff" fill-rule="evenodd" stroke="#ff5f00" stroke-linecap="round" stroke-linejoin="round" stroke-width="88.6525"/>
<path d="m377.69846,403.09967 44.36487,64.5303 143.17568,20.16563c0,0-48.39752-98.81188-86.71171-116.96116-38.31529-18.14904-102.84568,32.26523-100.82884,32.26523z" fill="#fff" stroke="#ff5f00" stroke-width="20.49638"/>
<path d="m336.35893,351.67701c38.63607-2.93082 135.1104,16.13262 135.1104,16.13262-47.66014-24.86579-165.35926,145.1931-185.52478,203.67362-77.43124-36.80773-58.37352-201.97364 50.41448-219.80624z" fill="#ff5f00" stroke="#ff5f00" stroke-width="11.29279"/>
<path d="m174.40568,480.5178c12.08442-.58568 219.97564,39.79784 219.97564,39.79784l-165.04751,135.20353-54.92813-175.00137z" fill="#ff5f00" stroke="#ff5f00" stroke-width="11.29279"/>
</svg>
