<?xml version="1.0" encoding="UTF-8" standalone="no"?>
<svg width="1500" xmlns="http://www.w3.org/2000/svg" height="1500">
 <g id="g3780" stroke="#6d2d5f" fill="#fff">
  <path id="path3782" stroke-width="10" d="m983.26 84.289c-43.849-7.139-94.69 4.47-129.3 32.324-220.88 177.77-479.69 387.43-670.74 545.48-56.46 46.707-121.54 107.54-44.447 208.09 25.39 25.094 56.12 39.029 86.873 54.548 89.607 43.657 187.37 83.436 278.8 117.18 112.44 32.37 187.51 22.02 272.74-50.504 174.52-187.72 456.74-484.21 670.74-711.15 20.66-21.625 27.75-47.474 24.24-76.771-3.54-29.489-45.62-42.685-74.75-48.488-134-26.696-279.26-48.748-414.16-70.71z"/>
  <g stroke-width="5">
   <path id="path3786" d="m171.9 683.31c-60.441 53.924-55.269 107.22-16.162 124.25 120.9 52.642 239.74 100.26 377.8 148.49 69.773 24.375 163.03-1.151 215.16-53.538 229.42-230.53 452.42-454.5 676.8-684.88 36.09-37.05-17.36-50.366-39.39-54.548-135.27-25.676-271.16-49.96-408.1-70.711-37.466-5.678-80.829 4.227-110.11 28.284-228.18 187.49-486.68 389.19-696 562.66h0.000092z"/>
   <path id="path3790" d="m236 672.07l518.57 185.72 600-598.57-500-98.571-618.57 511.43z"/>
   <path id="path3794" d="m362.14 780.65c12.864-10.47 23.846-12.768 41.428-7.143 25.28 8.087 52.363 19.295 77.143 27.143 16.962 5.372 23.333 14.176 11.847 26.551-9.8652 10.628-18.313 17.441-30 27.143-18.329 15.214-34.209 15.229-50.418 9.163-24.391-9.129-48.652-19.583-72.858-28.572-27.94-10.375-15.583-18.737-2.265-31.342 7.049-6.671 17.07-16.39 25.123-22.943z"/>
  </g>
  <g stroke-width="3">
   <path id="path3054" d="m350.36 617.79c-13.428 11.382-29.566 25.244-41.429 36.786-1.2799 1.2452-1.6584 4.6948 0 5.3571 16.852 6.7302 33.156 12.641 49.286 17.857 3.6687 1.1863 8.4731 0.69061 11.429-1.7857 15.746-13.193 29.973-24.789 43.737-38.005 1.4997-1.4399 4.3041-4.3257 1.0968-5.5663-14.889-5.7588-34.805-12.009-52.691-17.857-3.7614-1.2298-8.4098 0.65552-11.429 3.2143z"/>
   <path id="path3824" d="m425.22 694.42c12.512-10.64 31.652-28.501 46.214-39.649 2.355-1.802 5.968-1.75 8.839-1.01 17.511 4.512 34.963 11.124 50.255 16.163 1.797 0.59204 3.372 3.979 2.021 5.303-14.628 14.334-31.239 28.207-45.205 40.406-2.439 2.13-6.271 3.801-9.344 2.778-17.362-5.78-34.094-11.267-52.022-18.435-1.736-0.69397-2.182-4.345-0.758-5.556z"/>
   <path id="path3834" d="m545.18 734.06c-1.7277 1.727-2.0418 6.485 0.2525 7.324 20.688 7.559 40.783 14.445 61.367 21.213 2.8543 0.93799 6.6537 0.29401 8.8392-1.768 14.516-13.7 29.255-27.872 40.911-41.164 1.613-1.839-0.96503-5.781-3.283-6.566-15.38-5.204-34.208-12.108-51.265-16.92-4.5399-1.28-10.456-2.438-14.142 0.505-13.791 11.011-30.873 25.578-42.679 37.376z"/>
   <path id="path3836" d="m676.24 777c-1.834 1.974-2.238 7.052 0.25195 8.081 17.127 7.077 37.801 13.726 55.559 19.951 4.948 1.734 11.886 2.128 15.657-1.516 13.849-13.38 29.569-28.098 43.437-42.679 1.536-1.615 0.83301-5.808-1.263-6.566-17.065-6.168-39.634-13.699-60.609-20.203-3.5029-1.0859-8.184-0.73999-10.859 1.7681-13.75 12.89-28.77 26.732-42.174 41.164z"/>
  </g>
 </g>
</svg>
