<?xml version="1.0" encoding="UTF-8" standalone="no"?>
<svg viewBox="0 0 704.54303 756.57037" xmlns="http://www.w3.org/2000/svg">
<g transform="translate(-13.77254,-143.42712)">
<path d="m424.37028,144.62844-390.11618,138.91942-11.41804,9.51503-7.61202,13.32104v11.41803l247.39074,567.09572 7.61203,13.32104h26.64208l420.56427-176.97954v-43.76913l-293.06289-532.84161z" fill="#737678" fill-rule="evenodd" stroke="#000"/>
<path d="m119.76092,364.74612c-49.63433,44.02572-46.33995-63.23345-16.16408-81.14652 58.20558-18.07688 114.86873-44.66404 174.97512-58.17315 104.37174-11.96602 225.85123,31.19621 265.97661,135.96953 17.89192,25.67409 13.06,132.59854 3.86728,55.42254-8.97742-114.11764-128.1229-190.48247-236.33351-183.29912-81.50577,2.93167-163.29997,53.19452-192.32142,131.22672z" fill="#08060e" fill-rule="evenodd" stroke="#000"/>
<path d="m22.61888,293.48227c5.4422,9.12035 7.7229,40.67161 19.60019,44.68037 7.89193-4.62314 21.36546-12.41068 19.94999-26.14448-3.44899-14.11131-12.03572-27.38695-27.91074-28.13139-2.25949,2.11326-9.00573,7.92932-11.63944,9.5955z" fill="#e0e4e3" fill-rule="evenodd" stroke="#000"/>
<path d="m423.27269,143.9271c6.32078,11.36463 13.37214,22.34775 18.80551,34.18662 4.52129,8.34622-19.09256,19.31897-24.08509,10.53726-6.45484-8.19845-11.99851-21.85395-16.56173-30.36907-5.65783-9.0061 17.6179-7.97368 21.84131-14.35481z" fill="#e3e6ea" fill-rule="evenodd" stroke="#000"/>
<path d="m283.54785,235.97272c106.01515-14.55048 231.71661,38.88405 259.79198,149.87348 27.83469,107.39277-54.20189,226.27973-165.26418,236.60884-117.17695,21.84477-252.32031-57.21265-265.44817-181.0329-14.42271-85.63304 48.2524-167.22643 128.81955-190.9272 13.91347-5.18357 28.04603-9.74421 42.10082-14.52222z" fill="#d5d2d2" stroke="#000"/>
<path d="m353.95908,350.15305c39.92856,4.06876 65.4809,54.97566 44.77392,89.40605-14.65833,23.37036-44.21534,32.29473-70.55741,30.23944-15.48478-1.5702-31.85073-4.33074-44.84458-13.36396-20.00825-15.47923-31.55972-44.75364-20.41003-68.70078 8.8558-20.81669 28.90143-35.46623 51.01496-39.13054 13.23323-2.46852 27.01077-1.84981 40.02314,1.54979z" fill="#94a4b3" fill-rule="evenodd" stroke="#000"/>
<path d="m406.37973,430.68192c-4.9087,15.5804-12.56826,31.66969-27.02665,40.46771-13.59922,10.82211-31.89249,11.12663-48.44942,10.61747-8.37569-.6753-16.84136.50256-25.14865-.90509-12.87786-2.41017-23.99374-10.43007-32.62957-19.99691-6.96208-3.79454-8.44019-12.82172-14.48344-17.56562-5.84544-.32257.08151,8.86277 1.04949,11.87292 5.59252,10.08088 14.29521,17.94623 22.51608,25.8326 16.93105,14.3691 39.98167,20.91304 61.95356,18.07521 16.565.21855 30.60748-10.31699 42.21432-21.03712 13.5027-11.50805 22.54699-29.35442 20.00428-47.36117z" fill="#9e999d" fill-rule="evenodd" stroke="#000"/>
<path d="m127.83469,306.2113c-9.19901-3.66489-15.71918,5.9517-20.72492,10.37551-10.05486-4.27211 1.30756-19.14624 9.27086-19.95386 7.98942-1.4873 28.28-5.57769 26.16643,7.69643-4.12159,6.87169-7.89586,18.82472-17.59259,18.31591-3.83082-4.32249 1.82362-11.73258 2.88022-16.43399z" fill="#4e576a" fill-rule="evenodd" stroke="#000"/>
<path d="m577.31847,422.82219c-4.3237,3.02756-11.57921,5.88512-11.45296,11.94857 .67095,4.81216.87717,10.70352 5.58609,13.45649 4.3648,2.7857 9.52829,5.84572 14.86343,3.90635 7.4072-1.19769 3.62352-8.74434.4089-12.38808-2.9991-5.70508-6.25501-11.2887-9.40546-16.92333z" fill="#c3c5d2" fill-rule="evenodd" stroke="#000"/>
<path d="m179.83405,576.61072c12.81734,3.60255 10.77365,24.82017-1.70531,27.46511-11.62244,3.37374-22.7215-13.16065-14.10848-22.20359 4.22377-4.1331 10.65692-3.26648 15.81379-5.26152z" fill="#c3c5d2" fill-rule="evenodd" stroke="#000"/>
<path d="m437.69131,445.30334c11.17767-1.68353 16.67456,9.47571 12.44461,18.63046l-1.97805,35.6052c9.56185,8.83879 3.81751,23.48218 3.66244,34.3053-6.42699,3.30978-15.02147,3.85298-13.98613,13.61617 .90949,10.49687 8.25061,19.62099 5.23199,30.68401 .26841,15.66872-3.31402,31.12839-2.0293,46.78888 .42407,17.19632.98756,34.38887 1.41198,51.58519-8.23059,5.99556-13.78966-14.87494-20.71964-1.71701-5.52012,10.78879-13.3339,22.13452-26.89901,21.87391-11.16877-1.12518-24.68878,10.15701-33.29136-.64366-4.30631-12.01646-22.79144,2.09867-22.16642-12.87433-.17142-11.26186 2.40267-21.976 11.85383-29.01383 5.75398-8.80765 6.89649-19.73054 10.28265-29.56597-2.82195-12.36761 7.17425-22.40211 10.60932-33.55627l65.57309-145.71805z" fill="#b0b0bc" fill-rule="evenodd" stroke="#000"/>
<path d="m439.59433,480.50894c-5.6682-3.71324-15.54263.25346-14.14622,7.82112 1.00876,7.95948 12.81651,11.98939 17.93696,5.3643 3.64255-4.53975-1.94218-9.26778-3.79074-13.18542z" fill="#e2e3e6" fill-rule="evenodd" stroke="#000"/>
<path d="m425.32178,509.05405c4.7056-.02393 11.15596,2.73359 9.33767,8.4802-1.03154,5.97455-10.28045,6.23794-13.41146,1.88215-3.69724-3.58015-3.24375-11.66751 3.37281-10.25289l.70098-.10946z" fill="#e7e8eb" fill-rule="evenodd" stroke="#000"/>
<path d="m416.75827,537.59912c-7.31009.56621-10.77166,11.08378-4.20965,15.2147 4.43072,3.65815 12.39888,2.47625 14.17835-3.43603 1.97692-6.3771-5.83059-9.07392-9.9687-11.77867z" fill="#e5e7ea" fill-rule="evenodd" stroke="#000"/>
<path d="m414.85526,561.38672c6.24157,2.58269 9.90581,9.68862 7.92143,16.22484-1.12497,8.11543-2.14742,16.32155-4.16753,24.2439-3.44152,6.61298-12.85567,4.40878-17.28197.14606-6.37328-6.1523-3.36557-15.67642-1.43092-23.08743 1.4786-6.24742.29728-15.55949 8.77064-16.96753 2.04196-.61889 4.16118.12998 6.18835-.55984z" fill="#e2e3e6" fill-rule="evenodd" stroke="#000"/>
<path d="m415.80676,613.71936 11.41803.9515 .95151,11.41803-11.41804-1.903-.9515-10.46653z" fill="#08060e" fill-rule="evenodd" stroke="#000"/>
<path d="m433.88531,631.79791h-4.75751l-.9515,15.22405h6.66052l-.95151-15.22405z" fill="#08060e" fill-rule="evenodd" stroke="#000"/>
<path d="m384.40717,627.99188c-20.67485,1.00116-29.65234,28.34426-17.91295,43.75366 9.99637,15.26886 34.28108,19.06508 46.82208,4.75548 11.89713-12.33882 7.00325-33.49628-7.17186-41.8203-6.4065-4.14529-13.78368-8.48396-21.73727-6.68884z" fill="#726d74" fill-rule="evenodd" stroke="#000"/>
<path d="m393.92218,647.02197c-7.6846-3.26282-15.82756,9.05318-7.99165,13.69505 6.21635,6.56293 18.14987-2.87321 10.39512-9.51117-.8728-1.35046-1.78053-2.69382-2.40347-4.18388z" fill="#bdbac3" fill-rule="evenodd" stroke="#000"/>
<path d="m319.70496,644.16748c-.91332,27.80788 18.68855,50.9588 39.73363,66.67972 24.69717,11.39778 52.47676,6.62801 78.54707,6.08576 14.19338,3.46365 28.79687-4.04832 40.51079,1.91408 14.43704-9.60703 23.76166,14.78495 36.15674,19.40935 10.27064,15.82481-15.7229,34.48237-26.14942,29.28161 3.25071-26.22835-20.72738.21358-31.25078,4.20881-16.33247,10.85714-36.16982,15.6107-55.68057,14.10565-15.48054-1.93414-30.30752-.54821-29.79635,18.49217-12.70902,16.78707-23.50355-9.89943-18.69725-21.93987-15.09705-6.35836-32.96038-10.67646-44.69821-24.27996-19.4257-14.96252-35.28962-34.58912-43.16283-58.01278-2.16394-25.5249-28.577-31.83702-49.72179-31.7545-5.3987-14.64267-3.65127-28.80171 12.8647-34.65659-4.76195-16.29708 20.88474-16.63183 23.82114-6.59936 13.4596-1.28936 24.18777,4.33897 35.71007-1.96418 13.54951-3.27015 18.85488,2.73063 17.54053,16.17554l14.27253,2.85455z" fill="#aba8b1" fill-rule="evenodd" stroke="#000"/>
<path d="m305.45762,697.11632-15.47473,11.43784 79.39207,39.02322 1.34563-8.74659-65.26297-41.71447z" fill="#524f58" fill-rule="evenodd" stroke="#000"/>
<path d="m421.18164,765.74335c-.4018-5.45423 1.29943-11.51584-1.96848-16.39314-2.25361-3.85839-6.12184-6.43333-9.89828-8.60515-4.63359-1.42388-9.39574.64856-13.54543,2.59357-3.88801,2.75526-4.01871,9.09276-.90281,12.47941 4.32217,1.78041 9.06015,1.99714 13.53017,3.23832-3.28699,4.58518-8.20772,8.0434-13.69691,9.35508-4.34569.41598-7.85825-2.66771-11.5286-4.46704-3.49219-2.20266-5.19833-6.1259-7.38868-9.45354 .0384-5.17395.06202-10.53908 1.95568-15.425 2.1291-4.25331 4.78412-8.33823 8.40235-11.47773 4.16799-1.97658 8.94521-2.02215 13.45414-1.95519 5.04268.85771 10.48722.4809 15.05318,3.15169 4.25448,1.79238 8.08481,5.25415 9.18529,9.87553 2.80212,5.01215 4.31544,10.84277 3.93959,16.58541-.85278,3.87364-4.18472,6.44412-6.07872,9.7803l-.25624.35874-.25625.35874z" fill="#54545c" fill-rule="evenodd" stroke="#000"/>
<path d="m332.37018,806.78502-8.07377,4.7097-4.03688,7.40096 .67281,8.07377 4.7097,6.72814 6.72814,2.69125 10.09222-4.03688 3.36407-7.40096 .67281-8.74658-5.38251-6.72814-8.74659-2.69126z" fill="#a6a6ae" fill-rule="evenodd" stroke="#000"/>
<path d="m281.90912,805.43939 24.22131,47.09699c0,0-22.20286,12.11066-22.20286,8.74659s-23.5485-49.11543-23.5485-49.11543l21.53005-6.72815z" fill="#d1cfd8" fill-rule="evenodd" stroke="#000"/>
<path d="m614.27931,602.69146-4.7097,6.05533-5.38251,8.07377-8.07377,9.4194-10.09222,4.03688-80.06488,32.9679 2.01844,6.72814 14.80191.67281-.67281,14.80191-13.45628,2.69126 .67281,43.73292 17.49317,32.61458 20.18442-8.39327 115.05122-47.76981-.67281-9.41939-15.47473-2.01845 1.34563-10.09221 15.47473.67282-2.69126-10.09222-11.43784-14.80191 2.01844-28.25819v-16.82036l-14.80191-14.80191h-21.53005z" fill="#d87c0f" fill-rule="evenodd" stroke="#000"/>
<path d="m560.45416,598.21265c4.23294.89715 8.67474,2.5803 11.32712,6.18429 1.53579,2.11896 1.93094,4.84465 1.81271,7.40068-.29388,3.53524-2.06201,6.9108-4.74372,9.22243-3.55195,1.58864-7.62896,2.90798-11.5038,1.74715-1.4459-.33214-2.47495-1.45301-3.72532-2.12008-2.71986-1.24437-4.33321-4.09909-4.65884-6.99223-.36616-2.93681-.11842-5.932.37234-8.8372 .81397-2.84856 3.70408-4.33796 6.29634-5.25691 1.57499-.55882 3.20031-.95699 4.82317-1.34813z" fill="#97a5b7" fill-rule="evenodd" stroke="#000"/>
<path d="m584.48821,631.39462 20.60511,33.55375 1.92413,3.41889-38.1868,17.78396-22.45443-39.66286 38.11199-15.09374z" fill="#ecf3eb" fill-rule="evenodd" stroke="#000"/>
<path d="m628.40839,609.65045c-5.65664-.34798-13.09898,1.57719-13.72377,8.30344-.50054,7.28627 4.87404,14.07752 11.12502,17.232 6.2347,1.9265 13.9809-2.24106 15.56197-8.69686 2.29134-7.325-2.39678-16.17689-10.45938-16.73982-.83635.00896-1.66919-.06471-2.50384-.09876z" fill="#6f8caa" fill-rule="evenodd" stroke="#000"/>
<path d="m694.66367,636.25053c-5.34156-1.76101-12.1226,1.65282-12.94005,7.4417-.63861,6.76771 1.87724,13.34829 5.19454,19.12646 2.26008,4.08466 4.80836,8.01499 6.79812,12.24536 3.06073,3.91489 3.85437,9.41939 7.97345,12.51716 3.12785,2.0215 7.44064,2.07063 10.48334-.16493 2.48257-1.68743 4.35725-4.15858 5.6425-6.84827-.15555-5.93854-4.55826-10.40645-7.32465-15.30134-1.31403-2.55598-2.49764-5.16932-3.98683-7.63756l-11.84042-21.37858z" fill="#d8deea" fill-rule="evenodd" stroke="#000"/>
<path d="m22.26879,292.89963c82.51557,189.85777 168.91659,377.26856 251.73695,566.97371 6.39939,13.50648 23.87536,3.19148 33.70602-.83629l409.72141-175.85797v37.10858l-419.61277,177.93109c-10.04307-2.23243-27.04714,6.53561-31.72562-4.1745l-251.82224-579.0968c.70782-9.82803 3.26039-13.89888 7.99625-22.04782z" fill="#4e5567" fill-rule="evenodd" stroke="#000"/>
<g transform="translate(-15.22405,-3.80601)">
<path d="m533.79309,500.49054c13.50607,11.50778 28.49442,21.37536 39.71337,35.30347 6.0884,7.87798 20.34367,33.3394 27.8306,14.3549 2.08159-15.10644.7682-30.56203 1.53873-45.81305-1.36259-9.60285 3.99856-21.49561-3.51504-29.08549-7.36921-13.2858-21.21025,2.95601-28.90792-6.78025-4.09086-11.96514-19.34803-15.5459-25.93457-3.62678-3.89015,9.8569-5.70225,20.59713-9.07757,30.83007-.50267,1.62107-1.04425,3.23056-1.6476,4.81713z" fill="#eee4e3" fill-rule="evenodd" stroke="#000"/>
<path d="m595.39349,496.10873c13.89806-4.01949 7.92449-26.23814-5.22966-26.57841-15.97614-2.82372-23.17391,21.29497-6.92159,25.98939 3.87667,1.39913 8.15003,1.4557 12.15125.58902z" fill="#c4c2c6" fill-rule="evenodd" stroke="#000"/>
</g>
<path d="m382.50415,218.84566c-5.26228.50132-12.19461,6.6082-16.02038-.08799-3.88795-4.87629-2.39995-12.3071 2.55085-15.80714 6.6346-4.60799 15.146-2.32817 22.51096-1.44846 8.4852,1.5958 16.97406,3.48087 25.16001,6.22783 8.35435,3.71093 15.26421,10.20147 24.14134,12.85345 6.82384,2.35855 13.7878,4.32891 20.5261,6.9032 5.88196.52718 10.52618,4.08581 12.88425,9.4005l9.10618,14.30971c-4.63057,3.47531-8.77539,8.01698-14.52638,9.61655-5.75817,3.93293-10.3448-3.4865-14.79827-6.10555-7.51871-5.74872-14.74441-12.32122-23.93013-15.28361-15.83593-6.93375-31.69731-13.80975-47.60453-20.57849z" fill="#0e0e18" fill-rule="evenodd" stroke="#000"/>
<path d="m382.50415,163.65849 11.41803,9.51503-1.90298,11.41803h-9.51505l-9.51501-7.61201 9.51501-13.32105z" fill="#0e0d13" fill-rule="evenodd" stroke="#000"/>
<path d="m338.73502,384.40717c21.2087,6.01512 26.34822,37.00634 9.33972,50.38007-13.10495,10.28114-33.92834,7.42452-45.87832-3.37661-14.09423-14.85035-7.23425-45.14251 14.42322-48.39508 7.41221-1.18925 14.71507,1.44691 22.11538,1.39162z" fill="#cccbd9" fill-rule="evenodd" stroke="#000"/>
<path d="m327.31699,401.53421-13.32104,3.80602v9.51502l9.51503,11.41804 13.32104-3.80601 3.80601-13.32104-13.32104-7.61203z" fill="#67676f" fill-rule="evenodd" stroke="#000"/>
<path d="m309.23844,355.86208v6.66052l17.12705.9515 .9515-7.61202h-18.07855z" fill="#191d29" fill-rule="evenodd" stroke="#000"/>
<path d="m294.01439,392.01919 .9515,8.56352-16.17555-.9515 .95151-7.61202h14.27254z" fill="#02020a" fill-rule="evenodd" stroke="#000"/>
<path d="m354.91057,378.69814 11.41804.95151 .9515,6.66052h-13.32104l.9515-7.61203z" fill="#12141e" fill-rule="evenodd" stroke="#000"/>
<path d="m332.0745,443.40034h8.56353l1.90301,8.56353-11.41804-1.90301 .9515-6.66052z" fill="#0b0b15" fill-rule="evenodd" stroke="#000"/>
<path d="m359.34238,180.92403v11.62831c-7.82967,3.04077-15.54619,6.36167-23.25663,9.69026l-11.62832-3.8761-7.7522-7.75221v-7.75221l32.94687-11.62832 9.69028,9.69027z" fill="#e0e4e3" fill-rule="evenodd" stroke="#000"/>
</g>
</svg>
