<?xml version="1.0" encoding="UTF-8" standalone="no"?>
<svg viewBox="0 0 400 400" xmlns="http://www.w3.org/2000/svg" xmlns:xlink="http://www.w3.org/1999/xlink">
<defs>
<filter id="filter3970">
<feGaussianBlur stdDeviation="6.10539"/>
</filter>
<filter id="filter4016">
<feGaussianBlur stdDeviation="5.09392"/>
</filter>
<filter id="filter3924">
<feGaussianBlur stdDeviation="1.48932"/>
</filter>
<filter id="filter3912">
<feGaussianBlur stdDeviation="4.8099"/>
</filter>
<filter id="filter3988">
<feGaussianBlur stdDeviation="1.7272"/>
</filter>
<filter id="filter3832">
<feGaussianBlur stdDeviation="1.70144"/>
</filter>
<linearGradient id="linearGradient3998">
<stop offset="0" stop-color="#4c4c4c"/>
<stop offset=".02271"/>
<stop offset=".34055"/>
<stop offset=".40303" stop-color="#4d4d4d"/>
<stop offset=".44924"/>
<stop offset=".95638"/>
<stop offset="1" stop-color="#a3a3a3"/>
</linearGradient>
<linearGradient gradientUnits="userSpaceOnUse" id="linearGradient7418" x1="-2661.5498" x2="-2978.3337" y1="-376.67981" y2="749.03418">
<stop offset="0" stop-color="#af9d9d"/>
<stop offset=".5" stop-color="#dedada"/>
<stop offset=".75" stop-color="#bbb9b9"/>
<stop offset=".875" stop-color="#e6e6e6"/>
<stop offset="1" stop-color="#999"/>
</linearGradient>
<linearGradient gradientUnits="userSpaceOnUse" id="linearGradient3226" x1="177.1894" x2="251.40286" y1="938.48973" y2="732.53006">
<stop offset="0" stop-color="#af9d9d"/>
<stop offset=".5" stop-color="#dedada"/>
<stop offset=".63015" stop-color="#bbb9b9"/>
<stop offset=".875" stop-color="#e6e6e6"/>
<stop offset="1" stop-color="#999"/>
</linearGradient>
<linearGradient gradientUnits="userSpaceOnUse" id="linearGradient3230" x1="40.08342" x2="379.30044" xlink:href="#linearGradient3998" y1="819.68985" y2="824.97634"/>
<linearGradient gradientUnits="userSpaceOnUse" id="linearGradient3233" x1="227.85614" x2="375.1832" xlink:href="#linearGradient3998" y1="779.6995" y2="781.90221"/>
</defs>
<g transform="translate(0,-652.36218)">
<path d="m236.22643,724.82159 134.52794,80.69869c1.6958.95785 1.736,1.67037 1.74064,4.73141l.045,29.61222-135.26618-83.56799z" fill="url(#linearGradient3233)"/>
<path d="m235.84221,721.71347-198.40891,128.36969 .0068.96368-.26847-.17897 .31666,9.56801-.55689,18.06305c-.07996,4.2938-.35298,3.43852 2.74567,5.43337 40.20312,25.88365 83.25218,56.39536 125.64898,85.35303 4.3775,4.05408 12.34505,3.51834 16.16422.94586 30.16189-20.31724 139.82741-96.8302 190.0662-130.83117l-.53414-30.40866c-.45268-1.39615.31023-1.48129-2.23484-2.20347l-195.35082,134.85908c-36.51991-25.0542-74.17877-49.519-111.22296-74.13489l174.23419-111.68417z" fill="url(#linearGradient3230)"/>
<path d="m-2858.9716-97.65812 596.2827,362.83862c2.2744,1.5895 2.1331,2.1979 1.508,3.5186-22.1552,17.1867-13.76,21.8881 6.7662,41.115 .2337,4.0602.031,3.7702-2.7626,6.3626l-840.1452,577.1237c-3.8635.7198-4.4058-.066-6.5916-1.5667-23.626-16.2197-35.3053-10.6873-55.5565,1.3441-2.5809,1.5333-7.3475,1.6754-10.4008-.8038l-534.7783-357.6475c.2259-26.0155.3361-52.0315.4456-78.0476z" filter="url(#filter3970)" transform="matrix(.22027,0,0,.22027,863.01509,742.07475)"/>
<path d="m238.12446,722.54251 127.36744,77.50322c.50099.35012.46986.48413.33217.77504-4.88014,3.78573-3.03093,4.82131 1.4904,9.05643 .0515.89435.007.83047-.60852,1.4015l-185.05945,127.12349c-.85102.15855-.97047-.0145-1.45194-.3451-5.20412-3.57272-7.77672-2.3541-12.23747.29607-.5685.33774-1.61844.36904-2.29099-.17705l-117.79604-78.7793c.04976-5.73045.07403-11.46102.09815-17.19161l181.29154-118.87674c4.10959-3.23702 4.68765-3.3277 8.86471-.78595z" fill="url(#linearGradient3226)"/>
<path d="m-3484.4214,352.82928c34.5894-48.44087 112.1557-81.44968 112.1557-81.44968 48.0672-29.29602 132.3007-38.5157 154.8495-58.42776 14.0439-12.40168-.5217-24.8746-.2592-35.12979 .4471-17.46264 13.5221-15.72282 18.8512-21.23785l230.6832-152.68201c2.9491-1.41412 2.7925-1.27678 4.6281-1.31837 18.8842-.42788 65.4946-5.31527 86.5875-12.59353s19.1389-13.68531 41.9418-8.84232l186.9612,107.58604c-4.1624,42.70475 16.1034,65.40233 91.8519,60.23783l158.786,94.9536c14.8074,7.99105 18.7166,11.06941 19.6392,18.10296 .8925,6.80481-9.2605,23.72467-9.1017,30.44635 .311,13.18046 9.9627,22.46168 19.8988,27.07966 8.5498,3.97354 19.0995,15.0876-2.3175,33.79055l-214.3015,150.86648c-35.5068,17.74645-37.2023,13.99567-89.1487,11.26735s-50.1783,60.08809-81.3687,99.12243c0,0-17.3358,27.20223-38.1457,38.04789-81.7303,42.59611-239.6145,145.09729-259.4069,159.05007-16.5078,12.71629-27.1807,11.94466-36.9585,9.16374-71.2598-20.2676-83.2654,22.33224-112.2951,8.60841-8.1546-3.8551-2.9206-1.52314-25.5114-16.13822-90.7317-54.5714-182.5135-103.34523-267.1016-191.83671-94.877-145.52289-25.5072-220.22626 9.0824-268.66713z" fill="#999" filter="url(#filter4016)" transform="matrix(.22027,0,0,.22027,863.01509,742.07475)"/>
<path d="m-3459.0991,340.41634c35.1866-47.08989 111.6539-79.17811 111.6539-79.17811 47.6711-28.47897 129.8528-37.44153 152.4147-56.79826 14.052-12.0558.2949-24.18086.8807-34.15004 .9976-16.97562 13.6518-15.28432 19.0102-20.64554l229.1723-148.42383c2.9125-1.37468 2.7559-1.24117 4.5415-1.2816 18.3714-.41595 63.8394-5.16703 84.5787-12.2423s19.0464-13.30363 41.0572-8.59571l178.2782,104.58555c-5.4232,41.51374 13.5456,63.57832 87.3481,58.55786l151.2961,92.30541c14.1368,7.76819 17.8377,10.76069 18.5078,17.59808 .6482,6.61503-9.7671,23.06301-9.8295,29.59723-.1226,12.81287 8.9607,21.83524 18.4709,26.32443 8.1831,3.86271 18.0803,14.66682-3.3425,32.84815l-213.1889,146.65895c-35.0888,17.2515-36.616,13.60533-87.0258,10.9531s-50.7161,58.41228-82.2953,96.35798c0,0-17.7294,26.44358-38.3085,36.98677-80.8243,41.40814-237.6101,141.05064-257.3003,154.61428-16.4574,12.36165-26.8077,11.61154-36.2233,8.90818-68.6189-19.70236-81.6632,21.70941-109.4408,8.36832-7.8028-3.74758-2.7899-1.48065-24.2795-15.68814-86.4418-53.04944-174.0913-100.46301-253.4672-186.48653-87.5391-141.46437-17.6954-214.08433 17.4913-261.17422z" fill="#333" filter="url(#filter3924)" transform="matrix(.22027,0,0,.22027,863.01509,742.07475)"/>
<path d="m-3442.9605,330.02062c34.0916-45.62438 108.1791-76.71397 108.1791-76.71397 46.1875-27.59265 125.8116-36.27628 147.6713-55.0306 13.6146-11.6806.2857-23.42832.8532-33.08724 .9666-16.4473 13.227-14.80864 18.4187-20.00301l222.04-143.80464c2.8219-1.3319 2.6701-1.20255 4.4002-1.24172 17.7997-.403 61.8526-5.00622 81.9465-11.8613s18.4536-12.8896 39.7794-8.3282l172.7299,101.33068c-5.2544,40.22176 13.124,61.59965 84.6296,56.73544l146.5876,89.43272c13.6969,7.52644 17.2825,10.4258 17.9318,17.0504 .628,6.40917-9.4631,22.34526-9.5236,28.67612-.1187,12.41411 8.6818,21.15569 17.8961,25.50517 7.9285,3.7425 17.5176,14.21037-3.2385,31.82586l-206.5542,142.09469c-33.9967,16.71461-35.4763,13.18191-84.3173,10.61223s-49.1378,56.59439-79.7341,93.35916c0,0-17.1777,25.62061-37.1163,35.83568-78.309,40.11945-230.2153,136.66092-249.2928,149.80243-15.9451,11.97694-25.9734,11.25018-35.0959,8.63095-66.4834-19.08919-79.1217,21.03377-106.0348,8.10788-7.56-3.63095-2.7031-1.43457-23.524-15.1999-83.7515-51.39846-168.6732-97.33643-245.5788-180.68277-84.8147-137.06176-17.1447-207.42168 16.9469-253.04605z" fill="url(#linearGradient7418)" filter="url(#filter3912)" transform="matrix(.22027,0,0,.22027,863.01509,742.07475)"/>
<path d="m-3431.9369,398.4279 398.871-264.99222c13.8151-9.1781 31.014-7.02841 43.2146.82551l125.7803,80.969 1.3893,97.80465 182.1642,109.41885c8.822,5.29901 8.5277,11.29692 5.1499,15.6412-138.069,100.5322-288.896,204.62032-429.2897,302.73975-13.5949,9.50128-31.1314,7.20785-43.2146-.82551l-287.4298-191.09385c1.5222-86.78452.3785-44.50201 3.3648-150.48738z" fill="#1a1a1a" filter="url(#filter3988)" stroke="#b3b3b3" stroke-width="1.04022" transform="matrix(.22027,0,0,.22027,863.01509,742.07475)"/>
<path d="m1819.2857,1200.5764a105.71429,65.35714 0 1,1 -211.4286,0 105.71429,65.35714 0 1,1 211.4286,0z" fill="#b3b3b3" filter="url(#filter3832)" transform="matrix(.20985,0,0,.22027,-96.59991,538.67041)"/>
<path d="m1819.2857,1200.5764a105.71429,65.35714 0 1,1 -211.4286,0 105.71429,65.35714 0 1,1 211.4286,0z" fill="#1a1a1a" transform="matrix(.0472,0,0,.05657,274.3961,736.06834)"/>
<path d="m1819.2857,1200.5764a105.71429,65.35714 0 1,1 -211.4286,0 105.71429,65.35714 0 1,1 211.4286,0z" fill="#1a1a1a" transform="matrix(.0472,0,0,.05657,192.63184,796.12651)"/>
<path d="m1819.2857,1200.5764a105.71429,65.35714 0 1,1 -211.4286,0 105.71429,65.35714 0 1,1 211.4286,0z" fill="#1a1a1a" transform="matrix(.04117,0,0,.04935,163.19016,667.15945)"/>
<path d="m1819.2857,1200.5764a105.71429,65.35714 0 1,1 -211.4286,0 105.71429,65.35714 0 1,1 211.4286,0z" fill="#1a1a1a" transform="matrix(.0437,0,0,.05237,70.96567,721.94634)"/>
<path d="m1819.2857,1200.5764a105.71429,65.35714 0 1,1 -211.4286,0 105.71429,65.35714 0 1,1 211.4286,0z" fill="#1a1a1a" transform="matrix(.04969,0,0,.05956,-25.68763,779.01683)"/>
<path d="m1819.2857,1200.5764a105.71429,65.35714 0 1,1 -211.4286,0 105.71429,65.35714 0 1,1 211.4286,0z" fill="#1a1a1a" transform="matrix(.04969,0,0,.05956,87.71048,856.57787)"/>
<path d="m1819.2857,1200.5764a105.71429,65.35714 0 1,1 -211.4286,0 105.71429,65.35714 0 1,1 211.4286,0z" fill="#b3b3b3" transform="matrix(.02866,0,0,.03435,-6.40751,810.58789)"/>
<path d="m107.50018,828.9557 87.85963-58.37005c3.04306-2.02167 6.83148-1.54815 9.51891.18184l27.70573,17.8351 .30602,21.54351 40.12545,24.10177c1.94323,1.16722 1.87841,2.48839 1.13438,3.4453-30.41257,22.14431-63.63535,45.07188-94.55998,66.68473-2.99456,2.09285-6.85734,1.58768-9.51892-.18184l-63.31239-42.09239c.3353-19.1161.0834-9.80249.74117-33.14797z" fill="#fff" stroke="#b3b3b3" stroke-width=".22913"/>
<path d="m107.09393,843.70907c-.13024,5.09543-.12059,6.03837-.3373,18.39261l37.55617,24.96632 17.55283-11.46785-54.7717-31.89108z" fill="#f5ea4f"/>
<path d="m1819.2857,1200.5764a105.71429,65.35714 0 1,1 -211.4286,0 105.71429,65.35714 0 1,1 211.4286,0z" fill="#fff" transform="matrix(.20249,0,0,.2155,-84.4437,543.64063)"/>
<g transform="matrix(-.63322,-.40803,.2058,-.1527,-1482.6635,91.77454)">
<g font-size="9" text-anchor="middle">
<path d="m-2275,910h1v38h-1z"/>
<path d="m-2273,910h1v38h-1z"/>
<path d="m-2271,910h4v30h-4z"/>
<path d="m-2266,910h1v30h-1z"/>
<path d="m-2263,910h1v30h-1z"/>
<path d="m-2260,910h2v30h-2z"/>
<path d="m-2257,910h1v30h-1z"/>
<path d="m-2253,910h2v30h-2z"/>
<path d="m-2250,910h2v30h-2z"/>
<path d="m-2245,910h1v30h-1z"/>
<path d="m-2243,910h1v38h-1z"/>
<path d="m-2241,910h1v38h-1z"/>
<path d="m-2239,910h1v30h-1z"/>
<path d="m-2237,910h1v30h-1z"/>
<path d="m-2232,910h1v30h-1z"/>
<path d="m-2228,910h1v30h-1z"/>
<path d="m-2225,910h1v38h-1z"/>
<path d="m-2223,910h1v38h-1z"/>
<path d="m-2267.3955,948.29932 .791-.10547c.091.44824.2454.77124.4636.96899s.4842.29663.7976.29663c.3721,0 .6863-.1289.9427-.38672s.3845-.57714.3845-.958c0-.36328-.1187-.66284-.356-.89869s-.539-.35375-.9052-.35376c-.1495,1e-005-.3355.0293-.5581.0879l.088-.69434c.053.006.095.009.1275.009 .3369,0 .6401-.0879.9097-.26367s.4042-.44678.4042-.81299c0-.29004-.098-.53027-.2944-.7207s-.4497-.28564-.7602-.28565-.564.0967-.7691.29004-.3369.4834-.3955.87012l-.791-.14063c.097-.53027.3164-.94115.6592-1.23266s.769-.43725 1.2788-.43726c.3515,1e-005 .6753.0755.9712.22632s.5222.35669.6789.61743 .2351.5376.2351.83057c0,.27832-.075.53174-.2241.76025s-.3706.41016-.6636.54492c.3809.0879.6768.27027.8877.54712s.3164.62329.3164,1.03931c0,.5625-.205,1.03931-.6152,1.43042s-.9287.58667-1.5557.58667c-.5654,0-1.0349-.16846-1.4084-.50537s-.5867-.77344-.6394-1.30957z"/>
<path d="m-2258.2329,949.23975v.76025h-4.2583c-.01-.19043.025-.37353.092-.54932 .1084-.29003.282-.57568.5207-.85693s.5838-.60644 1.0349-.97559c.7002-.57421 1.1734-1.02905 1.4195-1.3645s.3691-.65258.3691-.95141c0-.31348-.1121-.57788-.3362-.79322s-.5163-.32299-.8767-.32299c-.3808,0-.6855.11426-.914.34277s-.3443.54493-.3472.94922l-.813-.0835c.056-.60644.2651-1.0686.6284-1.38647s.8511-.4768 1.4634-.47681c.6182,1e-005 1.1074.17139 1.4678.51416s.5405.76758.5405,1.27441c0,.25782-.053.51124-.1582.76026s-.2805.51123-.5251.78662-.6512.65332-1.2195,1.13379c-.4746.39844-.7793.6687-.9141.81079s-.2461.28491-.334.42847z"/>
<path d="m-2254.8447,950v-1.54248h-2.7949v-.7251l2.9399-4.1748h.646v4.1748h.8701v.7251h-.8701v1.54248zm0-2.26758v-2.90478l-2.0171,2.90478z"/>
<path d="m-2252.3706,948.3125 .8306-.0703c.061.4043.2043.70825.4284.91186s.4944.30542.8108.30542c.3809,0 .7031-.14355.9668-.43066s.3955-.66797.3955-1.14258c0-.45117-.1267-.80713-.3801-1.06787s-.5852-.39111-.9954-.39111c-.2548,0-.4848.0579-.6899.17358s-.3662.26587-.4834.45044l-.7427-.0967 .624-3.30908h3.2037v.75586h-2.5708l-.3472,1.73144c.3867-.26952.7925-.40429 1.2173-.40429 .5625,0 1.0371.19482 1.4238.58447s.5801.89063.5801,1.50293c0,.58301-.1699,1.08691-.5098,1.51172-.4131.52148-.977.78222-1.6919.78222-.5859,0-1.0642-.16406-1.4348-.49218s-.5823-.76319-.635-1.30518z"/>
<path d="m-2235.7681,945.13525-.7866.0615c-.07-.31054-.1699-.53613-.2988-.67676-.2139-.22558-.4776-.33837-.791-.33838-.252,1e-005-.4732.0703-.6636.21094-.249.18164-.4453.44678-.5889.79541s-.2182.84522-.2241,1.48974c.1904-.29003.4233-.50536.6987-.64599s.564-.21094.8658-.21094c.5273,0 .9763.1941 1.3469.58228s.5559.88989.5559,1.50512c0,.4043-.087.78003-.2615,1.1272s-.4138.61304-.7185.79761-.6504.27685-1.0371.27685c-.6592,0-1.1968-.24243-1.6128-.72729s-.624-1.28394-.624-2.39722c0-1.24511.23-2.15038.6899-2.71582 .4014-.49218.9419-.73827 1.6216-.73828 .5068,1e-005 .9221.1421 1.2459.42627s.5178.67676.5822,1.17773zm-3.2299,2.77735c0,.27246.058.5332.1735.78222s.2776.43873.4856.5691 .4263.19555.6548.19555c.334,0 .6211-.13476.8613-.40429s.3604-.63574.3604-1.09864c0-.44531-.1187-.79614-.356-1.05249s-.5361-.38452-.8964-.38452-.6607.12818-.9097.38452-.3735.59253-.3735,1.00855z"/>
<path d="m-2234.8101,944.40137v-.76026h4.1705v.61524c-.4102.43653-.8167,1.0166-1.2195,1.74023s-.7141,1.46778-.9339,2.23242c-.1582.53907-.2592,1.1294-.3032,1.771h-.813c.01-.50684.1084-1.11914.2988-1.83691s.4637-1.40991.8196-2.07642 .7346-1.22827 1.136-1.6853z"/>
</g>
</g>
<g font-family="Sans" font-size="11.20543" font-weight="bold" letter-spacing="0" transform="matrix(-.94257,-.62128,.73563,-.57605,0,0)" word-spacing="0">
<path d="m-709.43625-608.98773v-8.02108h1.61954v3.157h3.17341v-3.157h1.61954v8.02108h-1.61954v-3.50717h-3.17341v3.50717z"/>
<path d="m-701.34951-617.00881h2.96003c.6675,1e-005 1.17634.0511 1.52652.1532 .47053.13862.87359.38483 1.20918.73864s.5909.78698.76599,1.29946 .26262,1.14444.26263,1.89584c-1e-005,.66022-.0821,1.22924-.24621,1.70708-.20063.58361-.48696,1.05598-.85901,1.41709-.28087.27357-.66022.48696-1.13805.64015-.35747.11308-.83531.16962-1.43351.16962h-3.04757zm1.61953,1.35691v5.31273h1.20918c.4523,0 .77876-.0255.97938-.0766 .26263-.0657.48057-.17691.65384-.33375s.3146-.41492.42403-.77421 .16414-.84897.16414-1.46907-.0547-1.0961-.16414-1.42804-.26263-.5909-.4596-.77694-.44683-.31186-.74958-.37752c-.22616-.0511-.66934-.0766-1.32955-.0766z"/>
<path d="m-693.25184-617.00881h2.96003c.66751,1e-005 1.17635.0511 1.52653.1532 .47053.13862.87359.38483 1.20918.73864s.5909.78698.76599,1.29946 .26262,1.14444.26263,1.89584c-1e-005,.66022-.0821,1.22924-.24621,1.70708-.20063.58361-.48697,1.05598-.85901,1.41709-.28088.27357-.66023.48696-1.13806.64015-.35747.11308-.8353.16962-1.4335.16962h-3.04758zm1.61954,1.35691v5.31273h1.20918c.4523,0 .77876-.0255.97938-.0766 .26262-.0657.48057-.17691.65383-.33375s.3146-.41492.42404-.77421 .16413-.84897.16414-1.46907-.0547-1.0961-.16414-1.42804-.26264-.5909-.4596-.77694-.44684-.31186-.74958-.37752c-.22616-.0511-.66934-.0766-1.32955-.0766z"/>
</g>
<g font-family="Sans" font-size="6.33812" font-weight="bold" letter-spacing="0" transform="matrix(-.65604,-.44672,.98725,-.85205,0,0)" word-spacing="0">
<path d="m-970.49596-494.34137h-.86964v-3.27737c-.31773.2971-.6922.51683-1.1234.65918v-.78917c.22695-.0743.4735-.21508.73965-.42243s.44874-.44926.54778-.72573h.70561z"/>
<path d="m-966.24682-497.76729-.84179.0928c-.0206-.17331-.0743-.30122-.16092-.38375s-.1991-.12379-.33734-.1238c-.18362,1e-005-.33888.0825-.46576.24759s-.20684.50858-.23985,1.03056c.21664-.25583.48588-.38375.80774-.38375 .36312,0 .67415.13823.93308.4147s.38839.6334.38839,1.07079c0,.46422-.13617.83663-.40851,1.11722s-.62205.42089-1.04913.42089c-.45803,0-.83456-.17795-1.12959-.53385s-.44256-.93927-.44256-1.7501c0-.83146.15371-1.43082.46112-1.79807s.70665-.55087 1.19769-.55087c.34455,0 .62978.0965.8557.28936s.36983.47299.43173.84024zm-1.97138,1.8971c0,.28266.065.50084.19497.65454s.27853.23057.44565.23057c.16093,0 .29503-.0629.40232-.18879s.16093-.33217.16093-.61895c0-.29504-.0578-.51116-.17331-.64836s-.25996-.2058-.43327-.2058-.30845.0655-.42398.19652-.17331.32443-.17331.58027z"/>
<path d="m-964.19498-498.89689c.43945,0 .78297.15681 1.03056.47041 .29503.37137.44255.98724.44255,1.84758s-.14855,1.47518-.44565,1.85068c-.24552.30948-.58801.46422-1.02746.46422s-.79743-.1697-1.0677-.50909-.40542-.94443-.40542-1.81509c0-.85416.14855-1.46899.44565-1.84449 .24552-.30948.58801-.46422 1.02747-.46422zm0,.72108c-.10523,1e-005-.1991.0335-.28163.10058s-.14649.18724-.19188.36055c-.0598.22489-.0897.60348-.0897,1.13578s.0268.89801.0805,1.0971 .12121.33166.20271.39768 .17485.099.28008.099 .19909-.0335.28162-.10058 .14649-.18724.19188-.36055c.0598-.22282.0897-.60038.0898-1.13269s-.0268-.898-.0805-1.0971-.12121-.33217-.20271-.39923-.17485-.10057-.28007-.10058z"/>
<path d="m-958.0766-496.00946v-.76441h1.97447v1.80735c-.19188.18569-.46989.3492-.83404.49053s-.73295.21199-1.10638.21199c-.47454,0-.88821-.0995-1.24101-.29865s-.61793-.48381-.79536-.85416-.26615-.77317-.26615-1.20851c0-.47247.099-.89233.2971-1.25958s.48794-.64886.86963-.84487c.29091-.15061.653-.22592 1.08627-.22592 .56325,0 1.00322.11812 1.31992.35435s.52044.56274.61122.9795l-.90986.17021c-.064-.22282-.18415-.3987-.36055-.52766s-.39665-.19342-.66073-.19342c-.40026,0-.71851.12689-.95474.38066s-.35436.6303-.35435,1.12959c-1e-005,.5385.11966.94237.35899,1.21161s.55293.40387.94081.40387c.19188,0 .38427-.0376.57718-.11296s.35848-.1666.49671-.27389v-.57563z"/>
<path d="m-955.25725-498.87832h1.81354c.35899,0 .62669.015.8031.0449s.33423.0923.4735.18724 .25532.22128.34816.37911 .13926.33475.13927.53075c-1e-005,.21251-.0573.40749-.17176.58492s-.26977.31051-.46577.39922c.27647.0805.48898.21767.63753.41161s.22282.42192.22282.68395c0,.20632-.048.40696-.1439.60193s-.22696.35075-.39304.46732-.37086.18826-.61432.21508c-.15268.0165-.52095.0268-1.10483.031h-1.5443zm.91606.75513v1.04913h.60038c.35693,0 .57873-.005.66538-.0155 .1568-.0186.28008-.0727.36983-.16247s.13462-.20787.13462-.35436c0-.14029-.0387-.25428-.11605-.34197s-.1924-.14081-.34507-.15938c-.0908-.0103-.35178-.0155-.78298-.0155zm0,1.80425v1.21316h.84797c.3301,0 .53952-.009.62824-.0279 .13616-.0248.24706-.0851.33269-.18105s.12843-.22437.12843-.3853c0-.13617-.033-.25171-.099-.34662s-.16145-.16402-.28627-.20735-.39562-.065-.81238-.065z"/>
<path d="m-949.15434-495.81758 .8913-.0867c.0536.29917.16247.5189.3265.65919s.3853.21045.66383.21045c.29503,0 .51734-.0624.66693-.18724s.22436-.27079.22437-.43791c-1e-005-.10728-.0315-.19858-.0944-.27389s-.1728-.14081-.3296-.19651c-.10729-.0371-.35177-.10316-.73346-.19807-.49104-.12173-.83559-.27131-1.03366-.44874-.27853-.24965-.4178-.55397-.41779-.91296-1e-005-.23108.0655-.4472.19651-.64836s.3198-.35435.56635-.45958 .54416-.15783.89284-.15783c.56944,0 .99807.12483 1.28589.37447s.43894.58285.45338.99961l-.91605.0402c-.0392-.23313-.12328-.40077-.25223-.5029s-.32237-.15319-.58027-.15319c-.26615,0-.47454.0547-.62515.16402-.097.0702-.14545.16403-.14545.28163 0,.10729.0454.1991.13617.27544 .11554.097.39613.19806.84178.30328s.77524.21406.98878.3265 .38066.26616.50136.46113 .18104.43585.18104.72263c0,.25996-.0722.50342-.21663.73037s-.34868.39561-.61277.50599-.59317.16557-.98723.16557c-.57357,0-1.01406-.13256-1.32148-.39767s-.49104-.65146-.55087-1.159z"/>
<path d="m-940.59726-494.34137h-.99652l-.39614-1.03056h-1.81354l-.37447,1.03056h-.97176l1.76712-4.53695h.96867zm-1.68666-1.79497-.62515-1.68357-.61276,1.68357z"/>
<path d="m-939.08701-494.34137v-3.76945h-1.34623v-.7675h3.60542v.7675h-1.34313v3.76945z"/>
<path d="m-932.14231-494.34137h-.99652l-.39614-1.03056h-1.81354l-.37447,1.03056h-.97176l1.76712-4.53695h.96867zm-1.68666-1.79497-.62515-1.68357-.61276,1.68357z"/>
</g>
<g transform="matrix(-.1082,-.07269,.11597,-.08991,161.7263,823.95452)">
<path d="m-18.53877,50.36218h140.14032v57.39441h-140.14032z" fill="#fff" stroke="#000" stroke-linecap="round" stroke-width="2.97833"/>
<path d="m-5.52174,59.84045h14.04348v14.04348h-14.04348z" stroke="#000" stroke-linecap="round" stroke-width="2.95652"/>
<path d="m-5.52174,84.84045h14.04348v14.04348h-14.04348z" stroke="#000" stroke-linecap="round" stroke-width="2.95652"/>
<path d="m18.47826,59.84045h14.04348v14.04348h-14.04348z" stroke="#000" stroke-linecap="round" stroke-width="2.95652"/>
<path d="m18.47826,84.84045h14.04348v14.04348h-14.04348z" stroke="#000" stroke-linecap="round" stroke-width="2.95652"/>
<path d="m42.47826,59.84045h14.04348v14.04348h-14.04348z" stroke="#000" stroke-linecap="round" stroke-width="2.95652"/>
<path d="m42.47826,84.84045h14.04348v14.04348h-14.04348z" stroke="#000" stroke-linecap="round" stroke-width="2.95652"/>
<path d="m66.47826,59.84045h14.04348v14.04348h-14.04348z" stroke="#000" stroke-linecap="round" stroke-width="2.95652"/>
<path d="m66.47826,84.84045h14.04348v14.04348h-14.04348z" stroke="#000" stroke-linecap="round" stroke-width="2.95652"/>
<path d="m90.47826,59.84045h14.04348v14.04348h-14.04348z" stroke="#000" stroke-linecap="round" stroke-width="2.95652"/>
<path d="m90.47826,84.84045h14.04348v14.04348h-14.04348z" stroke="#000" stroke-linecap="round" stroke-width="2.95652"/>
<path d="m-18.53877,126.36218h140.14032v57.39441h-140.14032z" fill="#fff" stroke="#000" stroke-linecap="round" stroke-width="2.97833"/>
<path d="m-5.52174,135.84045h14.04348v14.04348h-14.04348z" stroke="#000" stroke-linecap="round" stroke-width="2.95652"/>
<path d="m-5.52174,160.84045h14.04348v14.04348h-14.04348z" stroke="#000" stroke-linecap="round" stroke-width="2.95652"/>
<path d="m18.47826,135.84045h14.04348v14.04348h-14.04348z" stroke="#000" stroke-linecap="round" stroke-width="2.95652"/>
<path d="m18.47826,160.84045h14.04348v14.04348h-14.04348z" stroke="#000" stroke-linecap="round" stroke-width="2.95652"/>
<path d="m42.47826,135.84045h14.04348v33.04348h-14.04348z" stroke="#000" stroke-linecap="round" stroke-width="2.95652"/>
<path d="m42.47826,160.84045h14.04348v14.04348h-14.04348z" stroke="#000" stroke-linecap="round" stroke-width="2.95652"/>
<path d="m66.47826,135.84045h14.04348v14.04348h-14.04348z" stroke="#000" stroke-linecap="round" stroke-width="2.95652"/>
<path d="m66.47826,160.84045h14.04348v14.04348h-14.04348z" stroke="#000" stroke-linecap="round" stroke-width="2.95652"/>
<path d="m90.47826,135.84045h14.04348v14.04348h-14.04348z" stroke="#000" stroke-linecap="round" stroke-width="2.95652"/>
<path d="m90.47826,160.84045h14.04348v14.04348h-14.04348z" stroke="#000" stroke-linecap="round" stroke-width="2.95652"/>
<path d="m-18.53877,206.36218h140.14032v57.39441h-140.14032z" fill="#fff" stroke="#000" stroke-linecap="round" stroke-width="2.97833"/>
<path d="m-5.52174,215.84045h14.04348v14.04348h-14.04348z" stroke="#000" stroke-linecap="round" stroke-width="2.95652"/>
<path d="m-5.52174,240.84045h14.04348v14.04348h-14.04348z" stroke="#000" stroke-linecap="round" stroke-width="2.95652"/>
<path d="m18.47826,215.84045h14.04348v14.04348h-14.04348z" stroke="#000" stroke-linecap="round" stroke-width="2.95652"/>
<path d="m18.47826,240.84045h14.04348v14.04348h-14.04348z" stroke="#000" stroke-linecap="round" stroke-width="2.95652"/>
<path d="m42.47826,215.84045h14.04348v14.04348h-14.04348z" stroke="#000" stroke-linecap="round" stroke-width="2.95652"/>
<path d="m42.47826,240.84045h14.04348v14.04348h-14.04348z" stroke="#000" stroke-linecap="round" stroke-width="2.95652"/>
<path d="m66.47826,215.84045h14.04348v30.04348h-14.04348z" stroke="#000" stroke-linecap="round" stroke-width="2.95652"/>
<path d="m66.47826,240.84045h14.04348v14.04348h-14.04348z" stroke="#000" stroke-linecap="round" stroke-width="2.95652"/>
<path d="m90.47826,215.84045h14.04348v14.04348h-14.04348z" stroke="#000" stroke-linecap="round" stroke-width="2.95652"/>
<path d="m90.47826,240.84045h14.04348v14.04348h-14.04348z" stroke="#000" stroke-linecap="round" stroke-width="2.95652"/>
</g>
<g transform="matrix(-.1082,-.07269,.11597,-.08991,96.80961,764.89144)">
<path d="m-1226.5388,78.36217h140.14032v57.39441h-140.14032z" fill="#fff" stroke="#000" stroke-linecap="round" stroke-width="2.97833"/>
<path d="m-1213.5217,87.84045h14.04348v14.04348h-14.04348z" stroke="#000" stroke-linecap="round" stroke-width="2.95652"/>
<path d="m-1213.5217,112.84045h14.04348v14.04348h-14.04348z" stroke="#000" stroke-linecap="round" stroke-width="2.95652"/>
<path d="m-1189.5217,87.84045h14.04348v14.04348h-14.04348z" stroke="#000" stroke-linecap="round" stroke-width="2.95652"/>
<path d="m-1189.5217,112.84045h14.04348v14.04348h-14.04348z" stroke="#000" stroke-linecap="round" stroke-width="2.95652"/>
<path d="m-1165.5217,87.84045h14.04348v14.04348h-14.04348z" stroke="#000" stroke-linecap="round" stroke-width="2.95652"/>
<path d="m-1165.5217,112.84045h14.04348v14.04348h-14.04348z" stroke="#000" stroke-linecap="round" stroke-width="2.95652"/>
<path d="m-1141.5217,87.84045h14.04348v14.04348h-14.04348z" stroke="#000" stroke-linecap="round" stroke-width="2.95652"/>
<path d="m-1141.5217,112.84045h14.04348v14.04348h-14.04348z" stroke="#000" stroke-linecap="round" stroke-width="2.95652"/>
<path d="m-1117.5217,87.84045h14.04348v14.04348h-14.04348z" stroke="#000" stroke-linecap="round" stroke-width="2.95652"/>
<path d="m-1117.5217,112.84045h14.04348v14.04348h-14.04348z" stroke="#000" stroke-linecap="round" stroke-width="2.95652"/>
</g>
<g font-family="Sans" font-size="5.38997" font-weight="bold" letter-spacing="0" transform="matrix(-.80299,-.53941,.86064,-.66721,0,0)" word-spacing="0">
<path d="m-836.31935-574.17316v-3.85825h1.25012c.47373,1e-005 .78253.0193.9264.0579 .22107.0579.40618.18379.55532.37767s.2237.44434.2237.75138c0,.23687-.043.43601-.12896.59743s-.1952.28818-.32766.3803-.26713.15308-.40399.18291c-.18598.0368-.4553.0553-.80796.0553h-.50795v1.45539zm.77902-3.20556v1.09484h.42636c.30704,0 .51232-.0202.61585-.0605s.18466-.10352.24344-.18949 .0882-.18598.0882-.30003c0-.14036-.0412-.25616-.12369-.3474s-.18686-.14826-.31319-.17107c-.093-.0175-.27985-.0263-.56058-.0263z"/>
<path d="m-832.01632-574.17316h-.73954v-2.79499h.68691v.3974c.11755-.18773.22326-.31143.31713-.37108s.20046-.0895.31977-.0895c.16843,1e-005 .33073.0465.48688.13949l-.22896.6448c-.12458-.0807-.24038-.12106-.3474-.12107-.10352,1e-005-.19125.0285-.26319.0855s-.12852.1601-.16975.30924-.0618.46144-.0618.93693z"/>
<path d="m-830.80041-575.61013c-1e-005-.24564.0605-.48338.18159-.71323s.29257-.40529.51452-.52636 .46978-.18159.74349-.1816c.42285,1e-005 .76937.1373 1.03957.41188s.4053.62156.4053,1.04089-.13642.77332-.40925,1.05141-.61628.41715-1.03035.41715c-.25617,0-.50049-.0579-.73297-.1737s-.40925-.28556-.53031-.50926-.1816-.4961-.18159-.81718zm.75796.0395c0,.27722.0658.48952.19739.6369s.29388.22107.48688.22107 .35486-.0737.48557-.22107 .19607-.36144.19608-.64217c-1e-005-.27371-.0654-.48425-.19608-.63164s-.29257-.22107-.48557-.22107-.35529.0737-.48688.22107-.19739.35969-.19739.63691z"/>
<path d="m-824.77091-574.17316h-.68691v-.41056c-.11404.15966-.24871.27853-.40398.35661s-.31187.11712-.46978.11712c-.32109,0-.59611-.1294-.82508-.3882s-.34345-.61979-.34345-1.08299c0-.47373.11141-.83385.33424-1.08036s.50443-.36977.84482-.36978c.3123,1e-005 .5825.12984.8106.38951v-1.3896h.73954zm-1.97387-1.45803c0,.29828.0412.51409.1237.64743 .11931.193.28599.2895.50004.2895 .17019,0 .31494-.0724.43425-.21712s.17897-.361.17897-.64875c0-.32108-.0579-.55224-.1737-.69348s-.26406-.21186-.44478-.21186-.3224.0697-.44083.20923-.17765.34784-.17765.62505z"/>
<path d="m-822.19962-574.17316v-.41846c-.10177.14914-.23555.2667-.40135.35267s-.34083.12896-.52505.12896c-.18774,0-.35618-.0412-.50531-.1237s-.25704-.19826-.32372-.3474-.10001-.35529-.1-.61848v-1.76858h.73954v1.28433c0,.39302.0136.63383.0408.72243s.0768.15879.1487.21055 .16317.0776.27371.0776c.12632,0 .23949-.0347.3395-.10396s.16844-.15528.20528-.25792 .0553-.35398.0553-.75402v-1.17905h.73955v2.79499z"/>
<path d="m-818.30716-576.14176-.72901.13159c-.0246-.14562-.0803-.25528-.16712-.32898s-.19958-.11053-.33819-.11053c-.18423,0-.33117.0636-.44083.1908s-.16449.33995-.16449.63822c0,.33161.0557.56584.16712.7027s.26099.20528.44873.20528c.14036,0 .25528-.0399.34476-.11975s.15265-.21712.1895-.41188l.72638.1237c-.0755.33336-.2202.58514-.43425.75533s-.50093.25529-.86061.25529c-.40881,0-.73472-.12896-.97772-.38688s-.36451-.61497-.36451-1.07115 .12194-.82069.36583-1.07773 .57373-.38556.98956-.38557c.34038,1e-005 .61102.0733.81192.21976s.3452.36978.43293.6698z"/>
<path d="m-816.46225-576.96815v.58953h-.50531v1.12642c0,.22809.005.361.0145.39872s.0316.0689.0658.0934 .0759.0368.12501.0368c.0684,0 .16756-.0237.2974-.0711l.0632.57374c-.17195.0737-.3667.11054-.58426.11054-.13335,0-.25354-.0224-.36056-.0671s-.18555-.10265-.23555-.1737-.0847-.16713-.10396-.28819c-.0158-.086-.0237-.25967-.0237-.5211v-1.21853h-.33951v-.58953h.33951v-.55532l.74217-.43161v.98693z"/>
<path d="m-814.61997-575.61013c0-.24564.0605-.48338.18159-.71323s.29257-.40529.51452-.52636 .46978-.18159.74349-.1816c.42285,1e-005 .76937.1373 1.03957.41188s.4053.62156.4053,1.04089-.13642.77332-.40925,1.05141-.61628.41715-1.03035.41715c-.25617,0-.50049-.0579-.73297-.1737s-.40924-.28556-.53031-.50926-.18159-.4961-.18159-.81718zm.75796.0395c0,.27722.0658.48952.19739.6369s.29388.22107.48688.22107 .35486-.0737.48558-.22107 .19606-.36144.19607-.64217c-1e-005-.27371-.0654-.48425-.19607-.63164s-.29258-.22107-.48558-.22107-.35529.0737-.48688.22107-.19739.35969-.19739.63691z"/>
<path d="m-811.47758-576.96815h.41057v-.21055c-1e-005-.2351.025-.41056.075-.52636s.14212-.21011.27634-.28292 .30398-.10922.50926-.10922 .4167.0316.61848.0947l-.10001.51584c-.11756-.0281-.23072-.0421-.33951-.0421s-.18379.025-.23028.075-.0697.14607-.0697.28818v.19739h.55268v.58163h-.55268v2.21336h-.73954v-2.21336h-.41057z"/>
<path d="m-807.30614-574.17316-.92114-3.85825h.79744l.58164,2.65025 .70532-2.65025h.92641l.67637,2.69499 .59216-2.69499h.78429l-.93693,3.85825h-.82639l-.7685-2.88447-.76586,2.88447z"/>
<path d="m-802.94521-575.61013c0-.24564.0605-.48338.18159-.71323s.29257-.40529.51452-.52636 .46978-.18159.74349-.1816c.42285,1e-005 .76937.1373 1.03957.41188s.4053.62156.4053,1.04089-.13642.77332-.40924,1.05141-.61629.41715-1.03036.41715c-.25617,0-.50049-.0579-.73296-.1737s-.40925-.28556-.53032-.50926-.18159-.4961-.18159-.81718zm.75796.0395c0,.27722.0658.48952.19739.6369s.29388.22107.48689.22107 .35485-.0737.48557-.22107 .19607-.36144.19607-.64217c0-.27371-.0654-.48425-.19607-.63164s-.29258-.22107-.48557-.22107-.3553.0737-.48689.22107-.19739.35969-.19739.63691z"/>
<path d="m-798.77114-574.17316h-.73954v-2.79499h.6869v.3974c.11756-.18773.22327-.31143.31714-.37108s.20045-.0895.31976-.0895c.16844,1e-005 .33073.0465.48689.13949l-.22897.6448c-.12457-.0807-.24037-.12106-.3474-.12107-.10352,1e-005-.19124.0285-.26318.0855s-.12852.1601-.16975.30924-.0618.46144-.0618.93693z"/>
<path d="m-797.38417-574.17316v-3.85825h.73954v3.85825z"/>
<path d="m-793.3259-574.17316h-.68691v-.41056c-.11405.15966-.24871.27853-.40398.35661s-.31188.11712-.46978.11712c-.32109,0-.59611-.1294-.82508-.3882s-.34345-.61979-.34345-1.08299c0-.47373.11141-.83385.33424-1.08036s.50443-.36977.84481-.36978c.31231,1e-005 .58251.12984.8106.38951v-1.3896h.73955zm-1.97387-1.45803c0,.29828.0412.51409.1237.64743 .1193.193.28599.2895.50004.2895 .17019,0 .31494-.0724.43425-.21712s.17896-.361.17897-.64875c-1e-005-.32108-.0579-.55224-.1737-.69348s-.26407-.21186-.44478-.21186-.3224.0697-.44083.20923-.17765.34784-.17765.62505z"/>
</g>
<path d="m-862.76404-629.05548h44.85824v21.04957h-44.85824z" fill="#fff" stroke="#000" stroke-linecap="round" stroke-width=".41191" transform="matrix(-.8301,-.55762,.79032,-.61269,0,0)"/>
<g fill="#666" font-family="Sans" font-size="4.05559" font-weight="bold" letter-spacing="0" transform="matrix(-.80299,-.53941,.86064,-.66721,0,0)" word-spacing="0">
<path d="m-889.28085-571.60925v-2.90308h.87726l.52675,1.98027 .52081-1.98027h.87924v2.90308h-.54458v-2.28523l-.57626,2.28523h-.56437l-.57428-2.28523v2.28523z"/>
<path d="m-885.89261-574.51233h1.07132c.24159,1e-005 .42576.0185.5525.0555 .1703.0502.31618.13928.43764.26734s.21386.28483.27723.47031 .095.41421.0951.68616c-1e-005,.23896-.0297.44491-.0891.61785-.0726.21123-.17624.38219-.3109.51289-.10165.099-.23895.17624-.41189.23169-.12938.0409-.30233.0614-.51883.0614h-1.10301zm.58616.49111v1.92284h.43764c.1637,0 .28185-.009.35446-.0277 .0951-.0238.17394-.064.23665-.1208s.11386-.15017.15347-.28021 .0594-.30727.0594-.5317-.0198-.39671-.0594-.51685-.0951-.21387-.16635-.2812-.16172-.11287-.27129-.13664c-.0819-.0185-.24226-.0277-.48121-.0277z"/>
<path d="m-882.94399-571.60925v-2.87931h.58616v2.39018h1.45747v.48913z"/>
<path d="m-880.37756-573.15584v-.55646h.55645v.55646zm0,1.54659v-.55646h.55645v.55646z"/>
<path d="m-875.74968-571.60925v-2.90308h1.23371c.31024,1e-005 .53566.0261.67626.0782s.25315.1449.33764.27823 .12673.28582.12674.45744c-1e-005,.21783-.064.39771-.19209.53963s-.31948.23136-.57428.26832c.12674.0739.23136.15513.31388.24358s.19373.24555.33367.4713l.35447.56636h-.70102l-.42377-.63171c-.15051-.22575-.25348-.368-.30893-.42675s-.11419-.099-.17624-.12079-.1604-.0327-.29506-.0327h-.11882v1.21193zm.58616-1.67531h.43368c.2812,0 .45678-.0119.52675-.0356s.12476-.0647.16437-.12277 .0594-.1307.0594-.21783c-1e-005-.0977-.0261-.17657-.0782-.23664s-.12574-.098-.2208-.11387c-.0475-.007-.1901-.01-.42773-.01h-.45745z"/>
<path d="m-872.82878-571.60925v-2.90308h.87726l.52675,1.98027 .52081-1.98027h.87924v2.90308h-.54457v-2.28523l-.57626,2.28523h-.56438l-.57427-2.28523v2.28523z"/>
<path d="m-867.68206-572.1261v.51685h-1.95056c.0211-.19539.0845-.38054.1901-.55547s.3142-.40694.62577-.69606c.25083-.23367.40463-.39209.4614-.47527 .0766-.11485.11485-.22839.11486-.3406-1e-005-.1241-.0333-.21948-.10001-.28615s-.15875-.1-.27625-.10001-.20859.035-.27723.10496-.10826.18615-.11882.34853l-.55448-.0554c.033-.30628.13664-.52609.31091-.65943s.39209-.20001.65349-.20001c.28647,0 .51156.0772.67527.23169s.24555.34655.24555.57626c0,.1307-.0234.25513-.0703.37328s-.12113.24193-.22278.3713c-.0673.0858-.18879.20925-.36437.37031s-.28681.268-.33367.32081-.0848.10429-.11387.15446z"/>
<path d="m-866.3632-574.52421c.2812,0 .50101.10034.65943.301 .18878.23764.28318.63171.28318,1.18222s-.0951.94393-.28516,1.1842c-.1571.19803-.37625.29704-.65745.29704s-.51025-.10858-.68319-.32575-.25942-.60431-.25942-1.16143c0-.54655.0951-.93996.28516-1.18024 .1571-.19802.37625-.29704.65745-.29704zm0,.4614c-.0673,1e-005-.1274.0215-.1802.0644s-.0937.11981-.12278.2307c-.0383.14391-.0574.38616-.0574.72676s.0172.57461.0515.70201 .0776.21222.12971.25446 .11188.0634.17921.0634 .1274-.0214.18021-.0644 .0937-.1198.12277-.2307c.0383-.14258.0574-.38417.0574-.72478s-.0172-.5746-.0515-.702-.0776-.21255-.1297-.25546-.11189-.0643-.17922-.0644z"/>
<path d="m-864.10569-574.52421c.28119,0 .501.10034.65943.301 .18878.23764.28317.63171.28317,1.18222s-.0951.94393-.28515,1.1842c-.15711.19803-.37626.29704-.65745.29704s-.51025-.10858-.6832-.32575-.25941-.60431-.25941-1.16143c0-.54655.0951-.93996.28516-1.18024 .1571-.19802.37625-.29704.65745-.29704zm0,.4614c-.0673,1e-005-.1274.0215-.18021.0644s-.0937.11981-.12277.2307c-.0383.14391-.0574.38616-.0574.72676s.0172.57461.0515.70201 .0776.21222.12971.25446 .11189.0634.17922.0634 .12739-.0214.1802-.0644 .0937-.1198.12278-.2307c.0383-.14258.0574-.38417.0574-.72478s-.0172-.5746-.0515-.702-.0776-.21255-.12971-.25546-.11189-.0643-.17921-.0644z"/>
<path d="m-862.80862-572.37958 .53864-.0653c.0172.1373.0634.24226.13862.31487s.16634.10891.27327.10891 .21156-.0436.29011-.1307 .11783-.20462.11783-.35248c0-.13994-.0376-.25084-.11288-.33269s-.167-.12278-.27526-.12278c-.0713,0-.15644.0139-.25545.0416l.0614-.45348c.1505.004.26535-.0287.34457-.098s.11881-.16139.11881-.27624c0-.0977-.029-.17558-.0871-.23368s-.13532-.0871-.23169-.0871-.17625.033-.24357.099-.10826.16238-.12278.28912l-.51289-.0871c.0356-.17558.0894-.31585.16139-.4208s.17228-.18747.301-.24754 .27295-.0901.43269-.0901c.27328,0 .49243.0871.65745.2614 .13598.14258.20397.30364.20397.48318 0,.2548-.13928.45811-.41784.60993 .16634.0356.29935.11551.39902.23961s.14951.27394.14952.44952c-1e-005,.25479-.0931.47196-.27922.65151s-.41784.26931-.69508.26931c-.26271,0-.48054-.0756-.65349-.22674s-.27327-.34885-.301-.59309z"/>
<path d="m-859.44018-571.60925v-.58418h-1.18816v-.48715l1.25945-1.84363h.46734v1.84165h.36041v.48913h-.36041v.58418zm0-1.07331v-.99211l-.66735.99211z"/>
<path d="m-856.39452-572.1261v.51685h-1.95057c.0211-.19539.0845-.38054.19011-.55547s.3142-.40694.62576-.69606c.25083-.23367.40464-.39209.4614-.47527 .0766-.11485.11486-.22839.11486-.3406 0-.1241-.0333-.21948-.1-.28615s-.15876-.1-.27625-.10001-.20859.035-.27724.10496-.10825.18615-.11882.34853l-.55447-.0554c.033-.30628.13664-.52609.3109-.65943s.39209-.20001.65349-.20001c.28648,0 .51157.0772.67527.23169s.24555.34655.24556.57626c-1e-005,.1307-.0234.25513-.0703.37328s-.12113.24193-.22278.3713c-.0673.0858-.18879.20925-.36437.37031s-.28681.268-.33368.32081-.0848.10429-.11386.15446z"/>
<path d="m-855.96084-572.38354v-.55645h1.0931v.55645z"/>
<path d="m-854.68159-572.37958 .53863-.0653c.0172.1373.0634.24226.13862.31487s.16634.10891.27328.10891 .21156-.0436.29011-.1307 .11782-.20462.11782-.35248c0-.13994-.0376-.25084-.11287-.33269s-.16701-.12278-.27526-.12278c-.0713,0-.15644.0139-.25545.0416l.0614-.45348c.1505.004.26536-.0287.34457-.098s.11882-.16139.11882-.27624c0-.0977-.029-.17558-.0871-.23368s-.13532-.0871-.2317-.0871-.17624.033-.24357.099-.10825.16238-.12278.28912l-.51289-.0871c.0356-.17558.0894-.31585.1614-.4208s.17228-.18747.301-.24754 .27294-.0901.43269-.0901c.27327,0 .49242.0871.65745.2614 .13597.14258.20396.30364.20396.48318 0,.2548-.13928.45811-.41783.60993 .16634.0356.29935.11551.39902.23961s.14951.27394.14951.44952c0,.25479-.0931.47196-.27922.65151s-.41784.26931-.69507.26931c-.26272,0-.48055-.0756-.65349-.22674s-.27328-.34885-.301-.59309z"/>
<path d="m-851.31315-571.60925v-.58418h-1.18816v-.48715l1.25945-1.84363h.46734v1.84165h.36041v.48913h-.36041v.58418zm0-1.07331v-.99211l-.66735.99211z"/>
<path d="m-850.13885-572.35581 .55447-.0574c.0158.12542.0627.22476.1406.29803s.16766.1099.26932.1099c.11617,0 .21453-.0472.29506-.14159s.12079-.23664.12079-.42674c0-.17823-.0399-.3119-.1198-.40101s-.18384-.13367-.31189-.13367c-.15975,0-.30299.0706-.42972.21189l-.4515-.0653 .28515-1.51094h1.47134v.52081h-1.04954l-.0871.49309c.1241-.062.25083-.0931.38021-.0931 .24687,1e-005 .45612.0898.62775.26932s.25743.41256.25743.69903c0,.23896-.0693.45217-.20793.63963-.18878.25612-.45084.38417-.78616.38417-.268,0-.48649-.072-.65547-.21585s-.26998-.3373-.30298-.58021z"/>
<path d="m-889.27491-569.44284h1.07132c.24159,0 .42576.0185.5525.0555 .1703.0502.31618.13928.43764.26734s.21386.28483.27723.47031 .0951.41421.0951.68616c-1e-005,.23896-.0297.4449-.0891.61785-.0726.21123-.17625.38219-.31091.51289-.10165.099-.23895.17624-.41189.23169-.12938.0409-.30233.0614-.51883.0614h-1.10301zm.58616.49111v1.92284h.43764c.1637,0 .28185-.009.35446-.0277 .0951-.0238.17394-.064.23665-.1208s.11386-.15017.15347-.28021 .0594-.30727.0594-.5317-.0198-.39671-.0594-.51685-.0951-.21387-.16635-.2812-.16172-.11287-.27129-.13664c-.0819-.0185-.24226-.0277-.48121-.0277z"/>
<path d="m-883.72422-566.53976h-.63765l-.25347-.65943h-1.16044l-.23961.65943h-.6218l1.13073-2.90308h.61982zm-1.07925-1.14856-.40001-1.07727-.39209,1.07727z"/>
<path d="m-882.75785-566.53976v-2.41197h-.86141v-.49111h2.30701v.49111h-.85944v2.41197z"/>
<path d="m-880.93204-566.53976v-2.90308h2.15255v.49111h-1.56639v.64359h1.45748v.48912h-1.45748v.79013h1.62184v.48913z"/>
<path d="m-878.12006-568.08635v-.55646h.55646v.55646zm0,1.54659v-.55646h.55646v.55646z"/>
<path d="m-874.92588-569.45472c.28119,0 .501.10034.65943.301 .18878.23764.28317.63171.28317,1.18222s-.0951.94393-.28515,1.1842c-.15711.19803-.37626.29704-.65745.29704s-.51025-.10858-.6832-.32575-.25941-.60431-.25941-1.16143c0-.54655.095-.93996.28516-1.18024 .1571-.19802.37625-.29704.65745-.29704zm0,.4614c-.0673,0-.1274.0215-.18021.0644s-.0937.11981-.12277.2307c-.0383.1439-.0574.38616-.0574.72676s.0172.57461.0515.70201 .0776.21222.12971.25446 .11189.0634.17922.0634 .12739-.0215.1802-.0644 .0937-.1198.12278-.2307c.0383-.14258.0574-.38417.0574-.72478s-.0172-.5746-.0515-.702-.0776-.21255-.12971-.25546-.11189-.0644-.17921-.0644z"/>
<path d="m-871.72973-567.05661v.51685h-1.95056c.0211-.19539.0845-.38055.1901-.55547s.3142-.40694.62577-.69606c.25083-.23367.40463-.3921.4614-.47527 .0766-.11485.11485-.22839.11485-.3406 0-.1241-.0333-.21948-.1-.28615s-.15875-.10001-.27625-.10001-.20859.035-.27723.10496-.10826.18614-.11882.34852l-.55448-.0554c.033-.30628.13664-.52609.31091-.65943s.39209-.20001.65349-.20001c.28647,0 .51156.0772.67527.23169s.24555.34655.24555.57626c0,.1307-.0234.25513-.0703.37328s-.12113.24192-.22278.3713c-.0673.0858-.18879.20925-.36437.37031s-.28681.268-.33367.3208-.0848.1043-.11387.15447z"/>
<path d="m-867.48601-566.53976h-.63765l-.25347-.65943h-1.16044l-.23961.65943h-.62181l1.13073-2.90308h.61983zm-1.07925-1.14856-.40001-1.07727-.3921,1.07727z"/>
<path d="m-867.17313-566.53976v-2.90308h.94063c.35645,0 .5888.0145.69705.0436 .16634.0436.30562.13829.41784.28417s.16832.33433.16832.56536c0,.17823-.0323.32807-.097.44952s-.14687.21684-.24654.28615-.201.11519-.30397.13763c-.13995.0277-.34259.0416-.60795.0416h-.38219v1.09509zm.58616-2.41197v.82379h.3208c.23103,0 .38549-.0152.46339-.0456s.13894-.0779.18317-.14258 .0663-.13993.0663-.22575c0-.10561-.031-.19274-.0931-.26139s-.1406-.11155-.23565-.12872c-.07-.0132-.21057-.0198-.4218-.0198z"/>
<path d="m-864.46214-566.53976v-2.90308h1.23371c.31024,0 .53566.0261.67626.0782s.25314.14489.33763.27823 .12674.28582.12674.45744c0,.21783-.064.39771-.19209.53963s-.31948.23136-.57427.26832c.12673.0739.23136.15512.31387.24357s.19373.24556.33367.47131l.35447.56636h-.70101l-.42378-.63171c-.1505-.22575-.25348-.368-.30892-.42675s-.1142-.099-.17625-.12079-.1604-.0327-.29506-.0327h-.11881v1.21193zm.58616-1.67531h.43368c.28119,0 .45678-.0119.52675-.0357s.12475-.0647.16436-.12277 .0594-.1307.0594-.21783c0-.0977-.0261-.17657-.0782-.23664s-.12575-.098-.2208-.11387c-.0475-.007-.19011-.01-.42774-.01h-.45744z"/>
<path d="m-858.65203-567.05661v.51685h-1.95057c.0211-.19539.0845-.38055.19011-.55547s.3142-.40694.62576-.69606c.25084-.23367.40464-.3921.46141-.47527 .0766-.11485.11485-.22839.11485-.3406 0-.1241-.0333-.21948-.1-.28615s-.15875-.10001-.27625-.10001-.20859.035-.27724.10496-.10825.18614-.11881.34852l-.55448-.0554c.033-.30628.13664-.52609.3109-.65943s.3921-.20001.65349-.20001c.28648,0 .51157.0772.67528.23169s.24555.34655.24555.57626c0,.1307-.0234.25513-.0703.37328s-.12113.24192-.22278.3713c-.0673.0858-.18879.20925-.36437.37031s-.28681.268-.33368.3208-.0848.1043-.11386.15447z"/>
<path d="m-857.33317-569.45472c.28119,0 .501.10034.65943.301 .18878.23764.28317.63171.28318,1.18222s-.0951.94393-.28516,1.1842c-.15711.19803-.37626.29704-.65745.29704s-.51025-.10858-.68319-.32575-.25942-.60431-.25942-1.16143c0-.54655.0951-.93996.28516-1.18024 .1571-.19802.37625-.29704.65745-.29704zm0,.4614c-.0673,0-.1274.0215-.18021.0644s-.0937.11981-.12277.2307c-.0383.1439-.0574.38616-.0574.72676s.0172.57461.0515.70201 .0776.21222.1297.25446 .11189.0634.17922.0634 .12739-.0215.1802-.0644 .0937-.1198.12278-.2307c.0383-.14258.0574-.38417.0574-.72478s-.0172-.5746-.0515-.702-.0776-.21255-.12971-.25546-.11188-.0644-.17921-.0644z"/>
<path d="m-854.59248-566.53976h-.55645v-2.09711c-.20331.19011-.44293.33071-.71884.4218v-.50497c.14522-.0475.30298-.13763.47328-.27031s.28714-.28746.35051-.46437h.4515z"/>
<path d="m-852.33497-566.53976h-.55646v-2.09711c-.20331.19011-.44292.33071-.71883.4218v-.50497c.14521-.0475.30298-.13763.47328-.27031s.28714-.28746.35051-.46437h.4515z"/>
<path d="m-889.27491-564.37335h1.07132c.24159,0 .42576.0185.5525.0554 .1703.0502.31618.13928.43764.26733s.21386.28484.27723.47032 .0951.41421.0951.68616c-1e-005,.23896-.0297.4449-.0891.61785-.0726.21122-.17625.38219-.31091.51289-.10165.099-.23895.17624-.41189.23169-.12938.0409-.30233.0614-.51883.0614h-1.10301zm.58616.49111v1.92284h.43764c.1637,0 .28185-.009.35446-.0277 .0951-.0238.17394-.064.23665-.12079s.11386-.15017.15347-.28021 .0594-.30727.0594-.5317-.0198-.39671-.0594-.51685-.0951-.21387-.16635-.2812-.16172-.11287-.27129-.13664c-.0819-.0185-.24226-.0277-.48121-.0277z"/>
<path d="m-884.48464-562.53764 .56833.1802c-.0871.31685-.23202.55217-.43466.70597s-.45976.2307-.77132.2307c-.38549,0-.70234-.13169-.95053-.39506s-.37229-.62346-.37229-1.08024c0-.48318.12476-.85844.37427-1.12578s.57758-.401.9842-.40101c.35512,1e-005 .64358.10496.86537.31487 .13202.1241.23103.30232.29704.53467l-.58022.13862c-.0343-.1505-.10594-.26932-.21485-.35645s-.24127-.1307-.39705-.1307c-.21519,0-.38978.0772-.52378.23169s-.201.40464-.201.75053c0,.36701.066.6284.19803.78418s.30364.23367.51487.23367c.15578,0 .28978-.0495.40199-.14852s.19275-.25479.2416-.46734z"/>
<path d="m-883.41926-561.47028v-2.90307h.87726l.52675,1.98027 .52081-1.98027h.87924v2.90307h-.54457v-2.28523l-.57626,2.28523h-.56438l-.57427-2.28523v2.28523z"/>
<path d="m-879.92606-563.01687v-.55645h.55645v.55645zm0,1.54659v-.55645h.55645v.55645z"/>
<path d="m-875.29817-561.47028v-2.90307h1.2337c.31024,0 .53566.0261.67627.0782s.25314.14489.33763.27823 .12674.28582.12674.45744c0,.21783-.064.39771-.19209.53962s-.31948.23137-.57428.26833c.12674.0739.23136.15512.31388.24357s.19373.24556.33367.47131l.35447.56635h-.70102l-.42377-.6317c-.1505-.22575-.25348-.368-.30892-.42675s-.1142-.099-.17625-.1208-.1604-.0327-.29506-.0327h-.11881v1.21192zm.58616-1.6753h.43367c.2812,0 .45678-.0119.52676-.0357s.12475-.0647.16436-.12277 .0594-.1307.0594-.21783c-1e-005-.0977-.0261-.17658-.0782-.23665s-.12575-.098-.2208-.11386c-.0475-.007-.19011-.01-.42774-.01h-.45744z"/>
<path d="m-872.51193-562.2406 .53863-.0654c.0172.1373.0634.24225.13862.31486s.16634.10892.27327.10892 .21156-.0436.29011-.1307 .11783-.20463.11783-.35249c0-.13993-.0376-.25083-.11288-.33268s-.167-.12278-.27525-.12278c-.0713,0-.15645.0139-.25546.0416l.0614-.45348c.1505.004.26536-.0287.34457-.098s.11881-.16139.11881-.27625c0-.0977-.029-.17558-.0871-.23367s-.13532-.0871-.23169-.0871-.17624.033-.24357.099-.10826.16239-.12278.28912l-.51289-.0871c.0357-.17558.0894-.31585.16139-.42081s.17229-.18746.301-.24753 .27295-.0901.43269-.0901c.27328,0 .49243.0871.65745.26139 .13598.14259.20397.30365.20397.48319 0,.2548-.13928.4581-.41784.60992 .16634.0356.29935.11552.39903.23962s.14951.27393.14951.44952c0,.25479-.0931.47196-.27922.6515s-.41784.26932-.69507.26932c-.26272,0-.48055-.0756-.65349-.22674s-.27328-.34886-.301-.59309z"/>
<path d="m-869.1435-561.47028v-.58417h-1.18816v-.48715l1.25945-1.84363h.46734v1.84165h.36041v.48913h-.36041v.58417zm0-1.0733v-.99212l-.66735.99212z"/>
<path d="m-867.96524-562.14159 .53864-.0594c.0132.10957.0475.19076.10297.24357s.12872.0792.21981.0792c.11485,0 .21255-.0528.29308-.15842s.13202-.32477.15446-.65745c-.13994.16238-.31486.24357-.52477.24357-.22839,0-.42543-.0881-.59111-.26436s-.24853-.40563-.24853-.68815c0-.2944.0875-.5317.26239-.7119s.3977-.27031.66834-.27031c.2944,0 .53599.11387.72478.3416s.28318.60233.28318,1.1238c0,.53071-.0984.91356-.29506,1.14855s-.45282.35249-.76835.35249c-.22707,0-.41057-.0604-.55051-.18119s-.22971-.30133-.26932-.54161zm1.25945-1.21588c0-.17954-.0412-.31882-.12376-.41784s-.1779-.14852-.28615-.14852c-.10298,0-.18846.0406-.25645.12179s-.10198.2142-.10198.39902c0,.18747.037.3251.11089.41289s.16635.13169.27724.13169 .19704-.0423.27031-.12674 .1099-.20859.1099-.37229z"/>
<path d="m-864.77898-564.38523c.28119,0 .501.10034.65943.301 .18878.23763.28317.63171.28317,1.18222s-.0951.94393-.28515,1.1842c-.15711.19803-.37626.29704-.65745.29704s-.51025-.10858-.6832-.32575-.25941-.60431-.25941-1.16143c0-.54655.0951-.93997.28516-1.18024 .1571-.19803.37625-.29704.65745-.29704zm0,.4614c-.0673,0-.1274.0215-.18021.0644s-.0937.11981-.12278.2307c-.0383.1439-.0574.38616-.0574.72676s.0172.57461.0515.70201 .0776.21222.12971.25446 .11189.0634.17922.0634 .12739-.0215.1802-.0644 .0937-.11981.12278-.2307c.0383-.14258.0574-.38417.0574-.72478s-.0172-.57461-.0515-.70201-.0776-.21254-.12971-.25545-.11189-.0644-.17921-.0644z"/>
<path d="m-863.48191-562.2406 .53864-.0654c.0172.1373.0634.24225.13861.31486s.16635.10892.27328.10892 .21156-.0436.29011-.1307 .11783-.20463.11783-.35249c0-.13993-.0376-.25083-.11288-.33268s-.167-.12278-.27526-.12278c-.0713,0-.15644.0139-.25545.0416l.0614-.45348c.1505.004.26535-.0287.34457-.098s.11881-.16139.11881-.27625c0-.0977-.029-.17558-.0871-.23367s-.13532-.0871-.23169-.0871-.17625.033-.24358.099-.10825.16239-.12277.28912l-.51289-.0871c.0356-.17558.0894-.31585.16139-.42081s.17228-.18746.301-.24753 .27295-.0901.43269-.0901c.27328,0 .49243.0871.65745.26139 .13598.14259.20397.30365.20397.48319 0,.2548-.13928.4581-.41784.60992 .16634.0356.29935.11552.39902.23962s.14951.27393.14951.44952c0,.25479-.0931.47196-.27921.6515s-.41784.26932-.69508.26932c-.26271,0-.48054-.0756-.65349-.22674s-.27327-.34886-.301-.59309z"/>
<path d="m-861.2244-562.2406 .53863-.0654c.0172.1373.0634.24225.13862.31486s.16634.10892.27328.10892 .21155-.0436.29011-.1307 .11782-.20463.11782-.35249c0-.13993-.0376-.25083-.11287-.33268s-.16701-.12278-.27526-.12278c-.0713,0-.15644.0139-.25545.0416l.0614-.45348c.1505.004.26536-.0287.34457-.098s.11882-.16139.11882-.27625c0-.0977-.029-.17558-.0871-.23367s-.13531-.0871-.23169-.0871-.17624.033-.24357.099-.10826.16239-.12278.28912l-.51289-.0871c.0357-.17558.0894-.31585.1614-.42081s.17228-.18746.301-.24753 .27294-.0901.43269-.0901c.27327,0 .49242.0871.65744.26139 .13598.14259.20397.30365.20397.48319 0,.2548-.13928.4581-.41783.60992 .16634.0356.29934.11552.39902.23962s.14951.27393.14951.44952c0,.25479-.0931.47196-.27922.6515s-.41784.26932-.69507.26932c-.26272,0-.48055-.0756-.65349-.22674s-.27328-.34886-.301-.59309z"/>
<path d="m-858.83224-561.47028v-2.90307h.87726l.52675,1.98027 .52082-1.98027h.87923v2.90307h-.54457v-2.28523l-.57626,2.28523h-.56437l-.57428-2.28523v2.28523z"/>
</g>
<g fill="#808080" font-family="Sans" font-size="7.05002" font-weight="bold" letter-spacing="0" transform="matrix(-.80299,-.53941,.86064,-.66721,0,0)" word-spacing="0">
<path d="m-890.13534-586.85809 .99141-.0964c.0597.33276.18073.57717.36317.73323s.42858.23408.7384.23408c.32817,0 .57545-.0694.74183-.20827s.24957-.3012.24958-.48709c-1e-005-.11934-.035-.22089-.105-.30466s-.1922-.15662-.36661-.21859c-.11934-.0413-.39129-.11474-.81585-.22031-.54619-.1354-.92945-.30178-1.14976-.49915-.30981-.27768-.46472-.61618-.46472-1.01551 0-.25702.0729-.49742.21859-.72118s.35571-.39415.62996-.51119 .60528-.17556.99313-.17556c.6334,0 1.11017.13884 1.43031.41653s.48825.64832.50431,1.11189l-1.01894.0448c-.0436-.25932-.13713-.44579-.28056-.55939s-.35858-.17039-.64545-.1704c-.29605,1e-005-.52783.0608-.69536.18245-.10786.078-.1618.18245-.16179.31326-1e-005,.11934.0505.22146.15146.30637 .12852.10787.44063.22032.93633.33735s.86232.23811 1.09985.36318 .42341.29605.55767.51291 .20137.48481.20138.8038c-1e-005,.28917-.0803.55997-.24097.81241s-.38785.44005-.6816.56283-.65979.18417-1.09812.18417c-.63799,0-1.12796-.14745-1.4699-.44235s-.5462-.72462-.61275-1.28918z"/>
<path d="m-885.69121-585.13 1.24959-5.21867h.72635l-1.26336,5.21867z"/>
<path d="m-883.20236-585.21606v-5.04655h.99141l2.06544,3.3701v-3.3701h.94666v5.04655h-1.02239l-2.03446-3.29093v3.29093z"/>
<path d="m-877.93894-587.90457v-.96732h.96732v.96732zm0,2.68851v-.96732h.96732v.96732z"/>
<path d="m-873.80462-585.21606v-5.04655h1.01895v1.98626h1.99659v-1.98626h1.01895v5.04655h-1.01895v-2.20658h-1.99659v2.20658z"/>
<path d="m-868.71676-590.26261h1.86234c.41996,0 .74011.0321.96042.0964 .29605.0872.54964.24212.76077.46473s.37178.49513.48194.81756 .16523.72004.16523,1.19279c0,.41539-.0516.7734-.15491,1.07403-.12622.36719-.30637.66438-.54045.89158-.17671.17212-.41539.30637-.71602.40276-.22491.0711-.52554.10672-.90191.10672h-1.91741zm1.01895.85371v3.34256h.76077c.28457,1e-005 .48996-.0161.61619-.0482 .16523-.0413.30235-.1113.41136-.20999s.19794-.26104.26679-.48709 .10327-.53415.10327-.92429-.0344-.68962-.10327-.89846-.16524-.37178-.28916-.48882-.28113-.19621-.47161-.23753c-.14229-.0321-.42112-.0482-.8365-.0482z"/>
<path d="m-863.62202-590.26261h1.86234c.41997,0 .74011.0321.96043.0964 .29604.0872.54963.24212.76077.46473s.37177.49513.48193.81756 .16523.72004.16524,1.19279c-1e-005,.41539-.0516.7734-.15491,1.07403-.12623.36719-.30638.66438-.54046.89158-.17671.17212-.41538.30637-.71602.40276-.2249.0711-.52554.10672-.9019.10672h-1.91742zm1.01895.85371v3.34256h.76077c.28457,1e-005 .48997-.0161.61619-.0482 .16523-.0413.30235-.1113.41137-.20999s.19793-.26104.26678-.48709 .10327-.53415.10327-.92429-.0344-.68962-.10327-.89846-.16524-.37178-.28916-.48882-.28113-.19621-.47161-.23753c-.14229-.0321-.42112-.0482-.8365-.0482z"/>
<path d="m-858.52039-585.21606v-5.04655h2.14461c.53931,0 .93117.0453 1.17558.13597s.44005.25187.58693.48366 .22031.49685.22031.79519c0,.37867-.11131.69135-.33391.93805s-.55538.40219-.99829.46645c.22031.12851.40218.26965.54562.42341s.33677.42686.58004.81929l.61619.98453h-1.21861l-.73667-1.09813c-.26163-.39243-.44063-.63971-.53702-.74183s-.19851-.17212-.30637-.20999-.27883-.0568-.51292-.0568h-.20654v2.10675zm1.01895-2.91227h.75389c.48881,0 .79404-.0207.91567-.062s.21687-.11245.28572-.21343 .10327-.2272.10327-.37866c0-.16983-.0453-.30695-.13597-.41137s-.2186-.1704-.38383-.19794c-.0826-.0115-.33047-.0172-.74356-.0172h-.79519z"/>
<path d="m-850.37568-586.11453v.89847h-3.39076c.0367-.33965.14687-.66152.33047-.9656s.54619-.70741 1.08779-1.21c.43604-.4062.7034-.68159.80208-.82617 .1331-.19966.19966-.39702.19966-.59209 0-.21572-.058-.38153-.17384-.49743s-.27597-.17384-.48021-.17384-.36261.0608-.48194.18245-.18819.32358-.20654.60586l-.96387-.0964c.0574-.53242.23752-.91452.54045-1.14632s.68159-.34767 1.13599-.34768c.498,1e-005 .88928.13426 1.17386.40276s.42685.60242.42686,1.00174c-1e-005,.2272-.0407.4435-.12221.64889s-.21056.42055-.38727.64545c-.11704.14917-.32818.36375-.6334.64373s-.49857.46587-.58004.55766-.14745.1813-.19794.26851z"/>
<path d="m-849.75261-586.55516 .93633-.11359c.0298.23867.11016.42112.24097.54734s.28916.18933.47505.18933c.19966,0 .36776-.0757.50431-.2272s.20482-.35571.20482-.61275c0-.24326-.0654-.43603-.19621-.57832s-.29031-.21343-.4785-.21343c-.12392,0-.27195.0241-.44406.0723l.10671-.78831c.26162.007.46128-.0499.59898-.17039s.20654-.28056.20654-.48022c0-.16982-.0505-.30522-.15147-.4062s-.23523-.15146-.40276-.15147-.30637.0574-.42341.17212-.18819.28228-.21343.50259l-.89158-.15146c.062-.30522.15548-.54906.28056-.73151s.29948-.32588.52324-.4303 .47448-.15662.75216-.15663c.47505,1e-005 .85601.15147 1.14288.4544 .23637.24785.35456.52784.35456.83994 0,.44293-.24211.79634-.72634,1.06026 .28916.062.52037.20081.69364.41653s.2599.4762.2599.78142c0,.44292-.16179.82044-.48537,1.13255s-.72635.46817-1.20829.46817c-.45669,0-.83535-.13139-1.13599-.39416s-.47505-.60643-.52324-1.031z"/>
<path d="m-843.8971-585.21606v-1.01551h-2.06543v-.84683l2.18936-3.20487h.8124v3.20143h.62652v.85027h-.62652v1.01551zm0-1.86578v-1.72464l-1.16008,1.72464z"/>
<path d="m-840.23439-590.28327c.48882,1e-005 .87092.17442 1.14632.52325 .32817.41309.49226,1.09812.49226,2.0551 0,.9547-.16524,1.64088-.4957,2.05856-.2731.34424-.65406.51636-1.14288.51636s-.88699-.18876-1.18762-.56628-.45096-1.0505-.45096-2.01896c0-.9501.16524-1.63399.49571-2.05167 .27309-.34423.65405-.51635 1.14287-.51636zm0,.80208c-.11704,0-.22146.0373-.31326.11188s-.16294.20827-.21342.40104c-.0666.25015-.0998.67127-.0998,1.26335s.0298.99887.0895,1.22033 .13482.36891.22547.44235 .1945.11016.31154.11016 .22146-.0373.31326-.11188 .16294-.20826.21343-.40104c.0666-.24785.0998-.66782.0998-1.25992s-.0298-.99886-.0895-1.22032-.13483-.36948-.22548-.44407-.1945-.11188-.31154-.11188z"/>
<path d="m-836.31006-590.28327c.48882,1e-005 .87092.17442 1.14632.52325 .32817.41309.49226,1.09812.49226,2.0551 0,.9547-.16524,1.64088-.49571,2.05856-.2731.34424-.65405.51636-1.14287.51636s-.88699-.18876-1.18763-.56628-.45095-1.0505-.45095-2.01896c0-.9501.16523-1.63399.4957-2.05167 .2731-.34423.65406-.51635 1.14288-.51636zm0,.80208c-.11704,0-.22146.0373-.31326.11188s-.16294.20827-.21343.40104c-.0665.25015-.0998.67127-.0998,1.26335s.0298.99887.0895,1.22033 .13482.36891.22547.44235 .1945.11016.31154.11016 .22146-.0373.31326-.11188 .16293-.20826.21343-.40104c.0666-.24785.0998-.66782.0998-1.25992s-.0298-.99886-.0895-1.22032-.13483-.36948-.22547-.44407-.1945-.11188-.31154-.11188z"/>
<path d="m-830.75403-586.11453v.89847h-3.39076c.0367-.33965.14687-.66152.33047-.9656s.54619-.70741 1.08779-1.21c.43604-.4062.7034-.68159.80208-.82617 .13311-.19966.19966-.39702.19966-.59209 0-.21572-.058-.38153-.17384-.49743s-.27597-.17384-.48021-.17384-.3626.0608-.48194.18245-.18818.32358-.20654.60586l-.96387-.0964c.0574-.53242.23752-.91452.54045-1.14632s.6816-.34767 1.13599-.34768c.498,1e-005 .88929.13426 1.17386.40276s.42685.60242.42686,1.00174c-1e-005,.2272-.0407.4435-.12221.64889s-.21056.42055-.38727.64545c-.11704.14917-.32818.36375-.6334.64373s-.49857.46587-.58004.55766-.14745.1813-.19794.26851z"/>
<path d="m-830.13096-586.55516 .93633-.11359c.0298.23867.11015.42112.24097.54734s.28916.18933.47505.18933c.19965,0 .36776-.0757.50431-.2272s.20482-.35571.20482-.61275c0-.24326-.0654-.43603-.19622-.57832s-.29031-.21343-.47849-.21343c-.12393,0-.27195.0241-.44407.0723l.10672-.78831c.26162.007.46128-.0499.59897-.17039s.20654-.28056.20655-.48022c-1e-005-.16982-.0505-.30522-.15147-.4062s-.23523-.15146-.40276-.15147-.30637.0574-.42341.17212-.18819.28228-.21343.50259l-.89158-.15146c.062-.30522.15548-.54906.28055-.73151s.29949-.32588.52325-.4303 .47447-.15662.75216-.15663c.47505,1e-005 .85601.15147 1.14288.4544 .23637.24785.35456.52784.35456.83994 0,.44293-.24212.79634-.72634,1.06026 .28915.062.52037.20081.69364.41653s.2599.4762.2599.78142c0,.44292-.1618.82044-.48538,1.13255s-.72635.46817-1.20828.46817c-.45669,0-.83535-.13139-1.13599-.39416s-.47505-.60643-.52324-1.031z"/>
<path d="m-826.15156-586.38304 .93634-.10327c.0229.19048.0826.33162.179.42342s.22375.13769.38211.13769c.19965,0 .36948-.0918.50947-.27539s.22949-.56455.26851-1.14287c-.24327.28227-.54735.42341-.91224.42341-.39702,0-.73954-.15318-1.02755-.45956s-.43202-.70511-.43202-1.19623c0-.51177.15204-.92428.45611-1.23754s.69135-.46988 1.16181-.46989c.51177,1e-005 .93174.19794 1.25992.59381s.49226,1.04707.49226,1.95356c0,.92257-.17097,1.5881-.51292,1.99659s-.78716.61275-1.33564.61275c-.39473,0-.71373-.105-.95699-.31498s-.39932-.52382-.46817-.9415zm2.18937-2.11363c-1e-005-.3121-.0717-.55422-.21515-.72634s-.30925-.25818-.49743-.25818c-.17901,0-.3276.0706-.44579.21171s-.17728.37235-.17728.69364c0,.32588.0642.56513.19277.71774s.28916.22892.48194.22892 .34251-.0734.46988-.22032 .19105-.36259.19106-.64717z"/>
<path d="m-820.35112-585.21606v-1.01551h-2.06544v-.84683l2.18936-3.20487h.81241v3.20143h.62651v.85027h-.62651v1.01551zm0-1.86578v-1.72464l-1.16009,1.72464z"/>
<path d="m-817.49393-587.939c-.25015-.10556-.43203-.25072-.54562-.43546s-.1704-.38727-.1704-.60758c0-.37637.13138-.68733.39415-.93289s.63627-.36833 1.1205-.36834 .85199.12278 1.11706.36834 .39759.55652.3976.93289c-1e-005,.23408-.0608.44235-.18245.62479s-.29261.32187-.51292.41825c.27998.11246.49283.27654.63857.49226s.21858.46473.21859.747c-1e-005,.46588-.1486.84454-.44579,1.13599s-.6925.43719-1.18591.43719c-.45898,0-.84109-.12049-1.14631-.36145-.36031-.28457-.54046-.67471-.54046-1.17042 0-.27309.0677-.52381.2031-.75216s.34883-.40448.64029-.52841zm.19965-.9742c0,.19278.0545.3431.16352.45096s.25416.16179.43546.16179 .33047-.0545.44063-.16351 .16523-.2599.16523-.45268c0-.18129-.0545-.32645-.16351-.43546s-.25302-.16351-.43202-.16351c-.18589,0-.33392.0551-.44407.16523s-.16524.25589-.16524.43718zm-.0895,2.16183c0,.26621.0683.4739.20483.62307s.30694.22376.51119.22376 .36489-.0717.49571-.21515 .19621-.35055.19621-.62136c0-.23637-.0666-.42628-.19966-.56971s-.30178-.21515-.50603-.21515c-.23638,0-.41251.0815-.52841.24441s-.17384.33965-.17384.53013z"/>
</g>
</g>
</svg>
