<?xml version="1.0" encoding="UTF-8" standalone="no"?>
<svg viewBox="0 0 596 380" xmlns="http://www.w3.org/2000/svg" xmlns:xlink="http://www.w3.org/1999/xlink">
<defs>
<filter id="filter3714">
<feGaussianBlur stdDeviation=".42489"/>
</filter>
<filter id="filter3333">
<feGaussianBlur stdDeviation="2.96669"/>
</filter>
<filter id="filter4198">
<feGaussianBlur stdDeviation="14.82476"/>
</filter>
<filter id="filter4230">
<feGaussianBlur stdDeviation="11.27036"/>
</filter>
<linearGradient id="linearGradient4314">
<stop offset="0" stop-color="#aa8c38"/>
<stop offset=".23894" stop-color="#ceb469"/>
<stop offset="1" stop-color="#aa8c38"/>
</linearGradient>
<linearGradient id="linearGradient3396">
<stop offset="0" stop-color="#bcbcbf"/>
<stop offset=".5" stop-color="#ababaf"/>
<stop offset=".75" stop-color="#8c8c92"/>
<stop offset=".875" stop-color="#c1c1c4"/>
<stop offset="1" stop-color="#403b30"/>
</linearGradient>
<linearGradient gradientUnits="userSpaceOnUse" id="linearGradient4524" x1="186.45871" x2="186.45869" y1="609.0033" y2="521.8363">
<stop offset="0" stop-opacity=".49057"/>
<stop offset=".5" stop-opacity=".8239"/>
<stop offset="1" stop-opacity=".36478"/>
</linearGradient>
<linearGradient gradientUnits="userSpaceOnUse" id="linearGradient2363" x2="0" y1="179.81597" y2="380.46663">
<stop offset="0" stop-color="#013122"/>
<stop offset=".3385" stop-color="#013122"/>
<stop offset=".3385" stop-color="#f9f9f9"/>
<stop offset=".37269" stop-color="#fff"/>
<stop offset=".37269" stop-color="#d40000"/>
<stop offset=".38801" stop-color="#d40000"/>
<stop offset=".38801" stop-color="#f9f9f9"/>
<stop offset="1" stop-color="#f9f9f9"/>
</linearGradient>
<linearGradient gradientUnits="userSpaceOnUse" id="linearGradient2366" x1="317.86187" x2="199.14974" y1="382.94905" y2="177.3336">
<stop offset="0"/>
<stop offset="1" stop-color="#fff"/>
</linearGradient>
<linearGradient gradientUnits="userSpaceOnUse" id="linearGradient2372" x1="258.50112" x2="258.50111" y1="406.70977" y2="412.75436">
<stop offset="0" stop-opacity=".62264"/>
<stop offset=".80531" stop-color="#9a9a9a" stop-opacity=".3098"/>
<stop offset="1" stop-opacity="0"/>
</linearGradient>
<linearGradient gradientUnits="userSpaceOnUse" id="linearGradient2347" x1="462.55443" x2="657.50162" xlink:href="#linearGradient4314"/>
<linearGradient gradientTransform="matrix(.75058,-9.3065146e-2,-9.3065146e-2,-.75058,100.30803,746.28717)" gradientUnits="userSpaceOnUse" id="linearGradient2359" x1="443.90823" x2="701.66296" xlink:href="#linearGradient4314"/>
<linearGradient gradientTransform="matrix(.75058,9.3065146e-2,-9.3065146e-2,.75058,446.6708,-78.78668)" gradientUnits="userSpaceOnUse" id="linearGradient2387" x1="320.24414" x2="328.6629" xlink:href="#linearGradient3396"/>
<linearGradient gradientTransform="matrix(.33483,-1.1920096e-3,1.1920096e-3,.33483,135.80153,104.29871)" gradientUnits="userSpaceOnUse" id="linearGradient2377" x1="48.06992" x2="65.53999" xlink:href="#linearGradient3396"/>
</defs>
<g transform="translate(-108.46144,-98.40312)">
<g transform="matrix(.99284,-.11948,.11948,.99284,-52.65882,-127.31314)">
<g fill="#1a1a1a" filter="url(#filter4198)" transform="matrix(.75058,9.3065146e-2,-9.3065146e-2,.75058,164.81959,214.70561)">
<path d="m651.24415,184.27545c0,0 4.20936-.25773 5.24024,0s3.00671.68725 3.09261,3.17851 .0859,26.37311.0859,28.69256-.51544,4.46711-2.57717,4.46711h-5.75568l-.0859-36.33818z" fill="#1a1a1a" fill-rule="evenodd"/>
<path d="m645.11862,90.74942c7.27075,0 13.11923,5.8485 13.11923,13.11925v77.51152c0,.49376-.71047,1.23146-1.16294,1.23146h-5.60381v79.66823h5.64391c.5478,0 1.12284.52743 1.12284,1.0067v194.30408c0,7.27075-5.84848,13.11922-13.11923,13.11924h-90.19789c-.23877-.13786-1.14264-4.76323-5.02396-4.76323h-23.81322c-.15793,0-.3496,4.48439-.57153,4.48439h-19.94716c-.52235,0-.94753-4.48439-1.25169-4.48439h-24.24696c-4.1205,0-3.25739,4.76323-4.24404,4.76323h-88.18566c-7.27073,0-13.13302-5.84851-13.13302-13.11924v-228.56456c0-.65391.36211-1.06336 1.04953-1.06336h6.96009v-18.06311h-7.01533c-.67698,0-.99429-.4186-.99429-1.03573v-68.42712c0-.46374-.22763-2.11264.99429-3.24529 .50433-.46747 36.13632-36.88862 44.27394-45.10253 1.02143-1.03102 2.04445-1.33954 2.83101-1.33954h222.51589z" fill="#1a1a1a"/>
<path d="m483.59476,100.75867h23.2075v61.35766h-23.2075z" fill="#1a1a1a"/>
<path d="m513.47308,100.75867h23.2075v61.35766h-23.2075z" fill="#1a1a1a"/>
<g fill="#1a1a1a" transform="translate(331,-424)">
<path d="m58.76229,554.81432 29.12717-25.71424v80.71737h-29.12717v-55.00313z" fill="#1a1a1a"/>
<path d="m91.76247,521.02216h25.47164v68.50413h-25.47164z" fill="#1a1a1a"/>
<path d="m121.01835,521.02216h25.47164v68.50413h-25.47164z" fill="#1a1a1a"/>
<path d="m211.58684,521.02216h25.47164v68.50413h-25.47164z" fill="#1a1a1a"/>
<path d="m240.84265,521.02216h25.47164v68.50413h-25.47164z" fill="#1a1a1a"/>
<path d="m270.27139,521.77026h43.88371v67.75603h-43.88371z" fill="#1a1a1a"/>
<path d="m150.89664,521.02216h25.47164v68.50413h-25.47164z" fill="#1a1a1a"/>
<path d="m180.77492,521.02216h25.47164v68.50413h-25.47164z" fill="#1a1a1a"/>
</g>
<path d="m392.35828,130.66101h24.90561v54.33951h-24.90561z" fill="#1a1a1a"/>
<path d="m227.27803,641.75268v27.21727h12.17536v-1.96825h-10.25609v-25.24902h-1.91927z" fill="#1a1a1a" filter="url(#filter3714)" transform="matrix(1.96486,0,0,1.96486,-54.21946,-1129.4374)"/>
<path d="m424.46063,103.2486h23.2075v58.8678h-23.2075z" fill="#1a1a1a"/>
<path d="m424.46063,103.2486h23.2075v58.8678h-23.2075z" fill="#1a1a1a"/>
<path d="m243.62178,627.3762v29.9375h11.8125v-2h-9.8125v-27.9375h-2z" fill="#1a1a1a" filter="url(#filter3714)" transform="matrix(1.96486,0,0,1.96486,-54.21946,-1129.4374)"/>
<path d="m453.71649,103.2486h23.2075v58.8678h-23.2075z" fill="#1a1a1a"/>
<path d="m453.71649,103.2486h23.2075v58.8678h-23.2075z" fill="#1a1a1a"/>
<path d="m258.51133,627.3762v29.9375h11.8125v-2h-9.8125v-27.9375h-2z" fill="#1a1a1a" filter="url(#filter3714)" transform="matrix(1.96486,0,0,1.96486,-54.21946,-1129.4374)"/>
<path d="m483.59476,103.2486h23.2075v58.8678h-23.2075z" fill="#1a1a1a"/>
<path d="m273.71768,626.10938v31.20373h11.8125v-2.08459h-9.8125v-29.11914h-2z" fill="#1a1a1a" filter="url(#filter3714)" transform="matrix(1.96486,0,0,1.96486,-54.21946,-1129.4374)"/>
<path d="m513.47308,103.2486h23.2075v58.8678h-23.2075z" fill="#1a1a1a"/>
<path d="m288.92403,626.10938v31.20373h11.8125v-2.08459h-9.8125v-29.11914h-2z" fill="#1a1a1a" filter="url(#filter3714)" transform="matrix(1.96486,0,0,1.96486,-54.21946,-1129.4374)"/>
<path d="m544.28503,103.2486h23.2075v58.8678h-23.2075z" fill="#1a1a1a"/>
<path d="m544.28503,103.2486h23.2075v58.8678h-23.2075z" fill="#1a1a1a"/>
<path d="m304.60557,627.3762v29.9375h11.8125v-2h-9.8125v-27.9375h-2z" fill="#1a1a1a" filter="url(#filter3714)" transform="matrix(1.96486,0,0,1.96486,-54.21946,-1129.4374)"/>
<path d="m573.54077,103.2486h23.2075v58.8678h-23.2075z" fill="#1a1a1a"/>
<path d="m573.54077,103.2486h23.2075v58.8678h-23.2075z" fill="#1a1a1a"/>
<path d="m319.49512,627.3762v29.9375h11.8125v-2h-9.8125v-27.9375h-2z" fill="#1a1a1a" filter="url(#filter3714)" transform="matrix(1.96486,0,0,1.96486,-54.21946,-1129.4374)"/>
<path d="m603.13879,104.30621h20.85255v57.57793h-20.85255z" fill="#1a1a1a"/>
<path d="m627.41492,103.99493h14.62791v57.57793h-14.62791z" fill="#1a1a1a"/>
<path d="m346.87244,627.7512v27.46875h.03059v1.84375h7.46875v-2h-5.46875v-27.3125h-2.03059zm-12.31316.15625v29.3125h10.625v-2h-8.625v-27.3125h-2z" fill="#1a1a1a" filter="url(#filter3714)" transform="matrix(1.96486,0,0,1.96486,-54.21946,-1129.4374)"/>
<path d="m653.375,93.6875c1.78404,2.24007 2.875,5.08679 2.875,8.1875v77.5c0,.49376-.73503,1.25-1.1875,1.25h-5.59375v79.65625h2v-77.65625h5.59375c.45247,0 1.1875-.75624 1.1875-1.25v-77.5c0-4.13003-1.91208-7.78653-4.875-10.1875zm-278.875,114.21875v.96875c0,.61713.32303,1.03122 1,1.03125h5v-2h-6zm281.75,54.375v193.3125c0,7.27077-5.85425,13.12498-13.125,13.125h-89.125c.55525,1.01763.80157,1.93956.90625,2h90.21875c7.27075-2e-005 13.125-5.85423 13.125-13.125v-194.3125c0-.47927-.57721-1.00003-1.125-1h-.875zm-178.1875,201.65625c-4.1205,1e-005-3.26335,4.78125-4.25,4.78125h-88.1875c-3.12414,0-5.96803-1.09777-8.21875-2.90625 2.4042,2.98346 6.07216,4.90625 10.21875,4.90625h88.1875c.98665,0 .1295-4.78124 4.25-4.78125h22.75c-.18861-1.02381-.36021-2-.5-2h-24.25zm46.03125,0c-.15794,1e-005-.37182,4.5-.59375,4.5h-18.59375c.1965,1.02215.41651,2.00001.65625,2h19.9375c.22193,0 .43581-4.49999.59375-4.5h23.8125c.75726,0 1.38974.18429 1.9375.46875-.73425-1.21466-1.92856-2.46875-3.9375-2.46875h-23.8125z" fill="#1a1a1a"/>
</g>
<path d="m630.43065,407.57672c0,0 3.18345.19829 3.93322.48768s2.19282.79566 2.02544,2.67354-2.38994,19.80315-2.6058,21.54408-.80261,3.30496-2.3501,3.11308l-4.32011-.53565 3.31735-27.28273z" fill="url(#linearGradient2387)" fill-rule="evenodd"/>
<path d="m634.53695,336.80781c5.45729.67665 9.30276,5.61071 8.6261,11.068l-7.21362,58.17865c-.04595.3706-.64787.85819-.98749.81608l-4.20611-.52152-7.41433,59.79744 4.23621.52525c.41116.05098.79369.50038.74909.86011l-18.08294,145.84089c-.67665,5.45729-5.61069,9.30275-11.06798,8.62611l-67.7008-8.39428c-.16638-.1257-.41435-3.68153-3.32759-4.04275l-17.87375-2.21617c-.11854-.0147-.67974,3.33335-.84632,3.3127l-14.97196-1.85639c-.39206-.04861-.29385-3.45407-.52215-3.48238l-18.1993-2.25655c-3.09277-.38347-2.88822,3.27204-3.62878,3.18022l-66.19046-8.20701c-5.45727-.67666-9.3131-5.61201-8.63644-11.06927l21.27138-171.55616c.06087-.49081.37076-.76443.88672-.70046l5.22411.64774 1.68105-13.55782-5.26557-.65289c-.50813-.063-.70734-.40672-.64991-.86993l6.36819-51.36008c.04315-.34807.02575-1.60688 1.04831-2.34331 .42205-.30394 30.55628-24.32486 37.42865-29.73273 .86261-.67881 1.65918-.81516 2.24956-.74197l167.01613,20.70848z" fill="#025"/>
<path d="m548.99347,263.73965h17.55249v46.40653h-17.55249z" fill="#eff5ff" fill-opacity=".28037" transform="rotate(7.06808)"/>
<path d="m571.59131,263.73965h17.55249v46.40653h-17.55249z" fill="#eff5ff" fill-opacity=".28037" transform="rotate(7.06808)"/>
<g fill="url(#linearGradient4524)" transform="matrix(.75058,9.3065146e-2,-9.3065146e-2,.75058,446.6708,-78.78668)">
<path d="m58.76229,554.81432 29.12717-25.71424v80.71737h-29.12717v-55.00313z" fill="url(#linearGradient4524)"/>
<path d="m91.76247,521.02216h25.47164v68.50413h-25.47164z" fill="url(#linearGradient4524)"/>
<path d="m121.01835,521.02216h25.47164v68.50413h-25.47164z" fill="url(#linearGradient4524)"/>
<path d="m211.58684,521.02216h25.47164v68.50413h-25.47164z" fill="url(#linearGradient4524)"/>
<path d="m240.84265,521.02216h25.47164v68.50413h-25.47164z" fill="url(#linearGradient4524)"/>
<path d="m270.27139,521.77026h43.88371v67.75603h-43.88371z" fill="url(#linearGradient4524)"/>
<path d="m150.89664,521.02216h25.47164v68.50413h-25.47164z" fill="url(#linearGradient4524)"/>
<path d="m180.77492,521.02216h25.47164v68.50413h-25.47164z" fill="url(#linearGradient4524)"/>
</g>
<path d="m504.26868,265.62286h17.55249v44.52338h-17.55249z" fill="#f5cd5b" transform="rotate(7.06808)"/>
<path d="m526.39569,265.62286h17.55249v44.52338h-17.55249z" fill="#f5cd5b" transform="rotate(7.06808)"/>
<path d="m594.89526,265.62286h17.55249v44.52338h-17.55249z" fill="#f5cd5b" transform="rotate(7.06808)"/>
<path d="m617.02222,265.62286h17.55249v44.52338h-17.55249z" fill="#f5cd5b" transform="rotate(7.06808)"/>
<path d="m479.98877,286.35565h18.83681v41.0985h-18.83681z" fill="url(#linearGradient2347)" transform="rotate(7.06808)"/>
<path d="m504.26868,265.62286h17.55249v44.52338h-17.55249z" fill="url(#linearGradient2347)" transform="rotate(7.06808)"/>
<path d="m526.39569,265.62286h17.55249v44.52338h-17.55249z" fill="url(#linearGradient2347)" transform="rotate(7.06808)"/>
<path d="m512.34514,329.49349-5.68883,45.85394 17.41919,2.15081 5.68883-45.8303-17.41919-2.17445zm22.42986,2.78896-5.68883,45.8303 17.41919,2.17445 5.68883-45.85394-17.41919-2.15081z" fill="url(#linearGradient2359)"/>
<path d="m594.8952,265.62286h17.55249v44.52338h-17.55249z" fill="url(#linearGradient2347)" transform="rotate(7.06808)"/>
<path d="m617.02216,265.62286h17.55249v44.52338h-17.55249z" fill="url(#linearGradient2347)" transform="rotate(7.06808)"/>
<path d="m639.40796,266.42276h15.77137v43.54781h-15.77137z" fill="url(#linearGradient2347)" transform="rotate(7.06808)"/>
<path d="m657.76868,266.18732h11.0635v43.54781h-11.0635z" fill="url(#linearGradient2347)" transform="rotate(7.06808)"/>
<path d="m640.4606,339.78146c1.1306,1.84738 1.68452,4.08561 1.39595,6.41293l-7.21255,58.17001c-.04595.37061-.66803.86983-1.00764.82771l-4.19857-.52058-7.41322,59.78845 1.50116.18613 7.22709-58.28728 4.19857.52058c.33961.04211.9617-.45711 1.00764-.82771l7.21255-58.17001c.38436-3.09992-.71051-6.02237-2.71098-8.10023zm-219.94798,59.77685-.09015.72712c-.05744.46321.14648.80408.6546.8671l3.75291.46533 .18612-1.50116-4.50348-.55839zm206.4157,67.03392-17.99065,145.09664c-.67666,5.4573-5.61557,9.30654-11.07286,8.62989l-66.89551-8.29443c.32206.81549.42114,1.5304.49409,1.58551l67.71645,8.39622c5.45729.67663 10.3962-3.1726 11.07285-8.6299l18.08372-145.84721c.04461-.35974-.34017-.80432-.75133-.85528l-.65676-.08144zm-152.51127,134.77625c-3.09277-.38347-2.89438,3.28501-3.63494,3.19319l-66.19184-8.20718c-2.34492-.29075-4.37732-1.37938-5.89836-2.94625 1.52689,2.46307 4.10105,4.24764 7.2134,4.63354l66.19183,8.20718c.74057.09183.54218-3.57665 3.63494-3.19319l17.07571,2.11724c-.04628-.78601-.08423-1.53469-.18916-1.5477l-18.20158-2.25683zm34.55017,4.28391c-.11855-.01469-.69787,3.34301-.86445,3.32236l-13.95612-1.73044c.05237.7855.1265,1.53994.30645,1.56224l14.9647,1.85549c.16658.02065.7459-3.33705.86445-3.32236l17.8732,2.21612c.56839.07047 1.02596.26765 1.41063.53214-.43807-.98003-1.21779-2.03247-2.72566-2.21944l-17.8732-2.21611z" fill="#eff5ff" fill-opacity=".28037"/>
</g>
<g fill="#1a1a1a" filter="url(#filter4230)" transform="matrix(.75632,-2.6925102e-3,2.6925102e-3,.75632,102.58388,93.34628)">
<path d="m78.64724,155.83882c0,0-3.64575-.22322-4.53859,0s-2.60412.59522-2.67852,2.75291-.0744,22.8418-.0744,24.85069 .44642,3.86897 2.23209,3.86897h4.98502l.0744-31.47257z" fill="#1a1a1a" fill-rule="evenodd"/>
<path d="m84.91053,60.01483c-7.28394,0-13.14304,5.8591-13.14304,13.14305v77.65225c0,.49463.71177,1.23368 1.16507,1.23368h5.61397v79.81287h-5.65415c-.5488,0-1.12489.52838-1.12489,1.00852v194.65683c0,7.28394 5.8591,13.14303 13.14304,13.14304h88.03629l1.88327-1.41245h25.89494l1.41245,1.41245h19.93126l1.88327-1.41245h25.89493l1.41247,1.41245h91.60067c7.28394,0 13.15686-5.85911 13.15687-13.14304v-228.97951c0-.6551-.36278-1.06528-1.05144-1.06528h-6.97273v-18.0959h7.02807c.67821,0 .9961-.41937.9961-1.0376v-68.55136c0-.46458.22802-2.11646-.9961-3.25117-.50524-.46833-36.20193-36.95559-44.35432-45.18441-1.02329-1.03288-2.04816-1.34197-2.83613-1.34197h-222.91987z" fill="#1a1a1a"/>
<path d="m81.5,84.21875c-9.14944,0-17.2945,4.1244-22.6875,10.625 5.07432-4.1517 11.58645-6.625 18.6875-6.625h499.53125c1.76578,0 4.08184.68536 6.375,3 18.26903,18.44031 98.24277,100.20049 99.375,101.25 2.74317,2.54282 2.25001,6.24015 2.25,7.28125-1e-005,1.73963 1e-005,145.83059 0,151.96875h1.75c1.51981-1e-005 2.25-.95832 2.25-2.34375 1e-005-3.09821-1e-005-151.86641 0-153.625 1e-005-1.0411.49317-4.73843-2.25-7.28125-1.13223-1.04951-81.10597-82.80969-99.375-101.25-2.29316-2.31464-4.60922-3-6.375-3h-499.53125zm585.53125,271.5v40.53125h15.625c1.54325,0 2.37501.9382 2.375,2.40625 0,4.14873 1e-005,513.12498 0,513.125-1e-005,7.14126-2.5179,13.66317-6.71875,18.75 6.5488-5.39251 10.71873-13.56839 10.71875-22.75 1e-005-2e-005 0-508.97627 0-513.125 1e-005-1.46805-.83175-2.40625-2.375-2.40625h-15.625v-36.53125h-4zm-612.46875,113.59375c-1.22983-1e-005-2.53125,1.17403-2.53125,2.25v1.75h11.1875v-4h-8.65625z" fill="#1a1a1a" filter="url(#filter3333)" transform="matrix(.44508,0,0,.44508,48.97486,23.03542)"/>
<path d="m132.41626,422.71973h160.31906a14.08733,4.71695 0 0,1 14.08733,4.71695 14.08733,4.71695 0 0,1 -14.08733,4.71695h-160.31906a14.08733,4.71695 0 0,1 -14.08733-4.71695 14.08733,4.71695 0 0,1 14.08733-4.71695" fill="#1a1a1a"/>
<path d="m91.18077,102.46113h240.82232c2.61319,0 4.71694,2.10376 4.71694,4.71695v294.50627c0,8.55527-8.99373,14.22394-18.23606,14.22394h-205.41096c-11.52582,0-26.60919-9.95357-26.60919-23.38205v-285.34816c0-2.61319 2.10376-4.71695 4.71695-4.71695z" fill="#1a1a1a" stroke="#000" stroke-linecap="round" stroke-linejoin="round" stroke-width=".44271"/>
<path d="m88.31389,103.42838c-1.12697.86043-1.85386,2.21556-1.85386,3.74923v285.34241c0,13.42848 15.0923,23.39461 26.61812,23.39462h205.40504c5.76905,0 11.43774-2.22209 14.88622-5.96279-3.48737,3.20083-8.70328,5.07737-14.0008,5.07737h-205.40503c-11.52582-1e-005-26.61813-9.96614-26.61813-23.39462v-285.34242c0-1.07951.3628-2.07055.96844-2.8638z" fill="#1a1a1a"/>
<path d="m91.17769,102.45995c-1.53367,0-2.8888.72689-3.74923,1.85386 .79325-.60564 1.78428-.96844 2.8638-.96844h240.82208c2.61318,0 4.71767,2.10448 4.71767,4.71766v294.50105c0,3.20822-1.26587,6.0097-3.33419,8.25936 2.58854-2.38183 4.21962-5.49999 4.21961-9.14479v-294.50104c0-2.61319-2.10448-4.71766-4.71766-4.71766h-240.82208z" fill="#1a1a1a"/>
</g>
<path d="m157.93349,203.75393c0,0-2.75797-.15901-3.43264.01222s-1.96796.45719-2.01843,2.08931 .00523,17.27599.01064,18.79536 .34806,2.92499 1.6986,2.92018l3.77029-.01342-.02846-23.80365z" fill="url(#linearGradient2377)" fill-rule="evenodd"/>
<path d="m162.41256,131.26312c-5.50902.01961-9.92462,4.46676-9.90501,9.97578l.20908,58.73024c.00132.37409.54165.93114.88448.92993l4.24599-.01512 .21489,60.36435-4.27636.01523c-.41507.00148-.84936.40265-.84807.76579l.52412,147.22356c.01961,5.50901 4.46676,9.92461 9.97577,9.90501l66.58393-.23705 1.42056-1.07334 19.58496-.06972 1.07207,1.06447 15.07448-.05367 1.42056-1.07334 19.58495-.06972 1.07208,1.06446 69.27976-.24663c5.50901-.01961 9.93506-4.46681 9.91545-9.97581l-.61652-173.18261c-.00177-.49547-.27725-.80472-.7981-.80287l-5.27364.01878-.04872-13.68636 5.31549-.01893c.51295-.00182.75225-.31985.75058-.78744-.00372-1.04565-.18247-51.25347-.18457-51.84701-.00126-.35137.16676-1.60135-.76213-2.45625-.38339-.35286-27.47988-27.85292-33.66788-34.05462-.77672-.77843-1.55269-1.00945-2.14865-1.00732l-168.59955.60021z" fill="#025"/>
<path d="m81.5,84.21875c-9.14944,0-17.2945,4.1244-22.6875,10.625 5.07432-4.1517 11.58645-6.625 18.6875-6.625h499.53125c1.76578,0 4.08184.68536 6.375,3 18.26903,18.44031 98.24277,100.20049 99.375,101.25 2.74317,2.54282 2.25001,6.24015 2.25,7.28125-1e-005,1.73963 1e-005,145.83059 0,151.96875h1.75c1.51981-1e-005 2.25-.95832 2.25-2.34375 1e-005-3.09821-1e-005-151.86641 0-153.625 1e-005-1.0411.49317-4.73843-2.25-7.28125-1.13223-1.04951-81.10597-82.80969-99.375-101.25-2.29316-2.31464-4.60922-3-6.375-3h-499.53125zm585.53125,271.5v40.53125h15.625c1.54325,0 2.37501.9382 2.375,2.40625 0,4.14873 1e-005,513.12498 0,513.125-1e-005,7.14126-2.5179,13.66317-6.71875,18.75 6.5488-5.39251 10.71873-13.56839 10.71875-22.75 1e-005-2e-005 0-508.97627 0-513.125 1e-005-1.46805-.83175-2.40625-2.375-2.40625h-15.625v-36.53125h-4zm-612.46875,113.59375c-1.22983-1e-005-2.53125,1.17403-2.53125,2.25v1.75h11.1875v-4h-8.65625z" fill="#d2edff" fill-opacity=".3972" filter="url(#filter3333)" transform="matrix(.33663,-1.1983919e-3,1.1983919e-3,.33663,135.13399,103.39148)"/>
<path d="m197.87415,406.16446h121.25385a10.65464,3.56756 0 0,1 10.65464,3.56756 10.65464,3.56756 0 0,1 -10.65464,3.56756h-121.25385a10.65464,3.56756 0 0,1 -10.65464-3.56756 10.65464,3.56756 0 0,1 10.65464-3.56756" fill="url(#linearGradient2372)" transform="matrix(.99999,-3.559975e-3,3.559975e-3,.99999,0,0)"/>
<path d="m167.26917,163.34938 182.1396-.64842c1.97642-.00704 3.5732,1.57843 3.58024,3.55485l.79296,222.74204c.02304,6.47055-6.76387,10.78211-13.75406,10.80699l-155.35716.55307c-8.71725.03104-20.15196-7.45646-20.18812-17.61274l-.7683-215.81555c-.00703-1.97642 1.57842-3.57321 3.55484-3.58024z" fill="none" stroke="#000" stroke-linecap="round" stroke-linejoin="round" stroke-width=".33484"/>
<path d="m165.10348,164.08866c-.85003.65378-1.39615,1.68066-1.39202,2.84062l.76829,215.8112c.03615,10.15627 11.47766,17.65325 20.1949,17.62223l155.35269-.55306c4.36327-.01553 8.64464-1.71141 11.24274-4.54988-2.62897,2.43025-6.56882,3.86357-10.57547,3.87783l-155.35267.55305c-8.71725.03104-20.15876-7.46595-20.19491-17.62222l-.76829-215.81121c-.0029-.81646.26882-1.56698.72474-2.16856z" fill="#e5f4fd" fill-opacity=".5"/>
<path d="m167.26684,163.34849c-1.15995.00413-2.18291.55755-2.83064,1.41222 .59832-.4602 1.34688-.73726 2.16335-.74017l182.13942-.64842c1.97641-.00703 3.57376,1.57897 3.5808,3.55538l.79294,222.7381c.00864,2.42645-.94122,4.54868-2.49949,6.25572 1.95136-1.8084 3.17659-4.17113 3.16677-6.92778l-.79294-222.73809c-.00704-1.97642-1.60438-3.56241-3.58079-3.55538l-182.13942.64842z" fill="#000406" fill-opacity=".5"/>
<path d="m179.29813,170.34979h158.41544a10.65465,10.65465 0 0,1 10.65464,10.65464v198.27375a10.65465,10.65465 0 0,1 -10.65464,10.65465h-158.41544a10.65465,10.65465 0 0,1 -10.65464-10.65465v-198.27375a10.65465,10.65465 0 0,1 10.65464-10.65464" fill="url(#linearGradient2363)" opacity=".99" stroke="url(#linearGradient2366)" stroke-linecap="round" stroke-linejoin="round" stroke-width=".3" transform="matrix(1,-2.1729971e-3,2.1729971e-3,1,0,0)"/>
</g>
</svg>
