<?xml version="1.0" encoding="UTF-8" standalone="no"?>
<svg viewBox="0 0 85.128609 65.348602" xmlns="http://www.w3.org/2000/svg">
<defs>
<filter id="filter5398">
<feGaussianBlur stdDeviation="5.8264"/>
</filter>
<filter id="filter3406-4">
<feGaussianBlur stdDeviation=".8532"/>
</filter>
<filter height="1.22778" id="filter5446" width="1.31392" x="-.15696" y="-.11389">
<feGaussianBlur stdDeviation=".4103"/>
</filter>
<linearGradient gradientUnits="userSpaceOnUse" id="linearGradient5477" x1="613.9968" x2="620.27128">
<stop offset="0" stop-color="#ccc" stop-opacity="0"/>
<stop offset=".5" stop-color="#a5a5a5"/>
<stop offset="1" stop-color="#555"/>
</linearGradient>
</defs>
<title>USB Thumbdrive 3</title>
<g transform="translate(-582.22845,-386.31544)">
<path d="m641.50045,400.7815c-2.12398.0179-4.11619.33566-5.59818,1.19129l-33.11069,19.42566c-.33157.19143-.49734.42343-.50205.66941l-6e-005,7.24944c-.004.32201.2674.66773.80409.97758l12.52499,7.23155c.94884.54781 2.09258.61767 2.85523.17736l33.11708-19.42566c1.51537-.8749 2.2523-2.05209 2.25157-3.30937l.0002-7.29508c-.0256-1.64373-1.30681-3.41899-3.75368-4.8317-2.51251-1.4506-5.67786-2.08497-8.5885-2.06048z" fill="#fff" fill-rule="evenodd"/>
<path d="m613.99681,429.3442v7.24593l1.62174.9363c.94884.54781 2.09258.61767 2.85523.17736l1.79751-1.03696v-7.24593l-1.79751,1.03696c-.76265.44031-1.90639.37045-2.85523-.17736l-1.62174-.9363z" fill="url(#linearGradient5477)" fill-rule="evenodd" filter="url(#filter5446)" opacity=".3"/>
<path d="m603.09399,423.04876 12.52463,7.2311c.94884.54781 2.09462.62114 2.85534.17751l33.12606-19.31814c3.50401-2.04344 2.84398-5.68082-1.50199-8.18997s-10.67453-2.89647-14.18741-.86831l-33.11977,19.3168c-.76696.4428-.6457,1.1032.30314,1.65101" fill="#fff" fill-rule="evenodd"/>
<path d="m1024.7942,275.73073c-1.39,24.61176-14.3197,42.95963-31.24278,56.47631l-655.17064,383.06922c-28.68882,16.4473-44.44277,6.96355-63.97125-2.02311l-233.10449-135.34076c-32.0598-15.80787-27.8739-26.86221-14.93884-36.76911" fill="none" filter="url(#filter5398)" stroke="#000" stroke-width="4" transform="matrix(.05113,0,0,.05113,601.44465,393.7297)"/>
<path d="m641.37885,400.14831c-2.40874.009-4.82606.677-6.81925,2.04398-4.5061,2.62113-27.86373,16.29987-32.3431,18.96515-.62734.55245-.40249,1.46636-.43046,2.19895v1.63539c-3.10067,1.80325-6.22437,3.55295-9.30059,5.40056-.36566.57754-.0832,1.29821-.16794,1.93618 .033,1.37793-.1012,2.7742.0787,4.14046 .51945.566 1.30055.77307 1.91638,1.215 3.12936,1.79047 6.2329,3.63214 9.37682,5.39037 .68008.0447 1.13931-.55542 1.72846-.79179l8.69236-5.02022c1.11647.67418 2.35822,1.49502 3.72888,1.24642 1.21392-.24793 2.15681-1.12121 3.24844-1.65151 4.26077-2.48474 27.38759-16.0047 31.60884-18.55388 1.18652-.86556 1.80062-2.31772 1.79542-3.82903-.0374-2.48746-.0309-4.93388-.0713-7.46468-.42486-2.03195-2.08694-3.50644-3.80149-4.52237-2.76996-1.65337-6.0311-2.371-9.24009-2.33898z" fill="none" stroke="#000" stroke-linecap="round" stroke-linejoin="round" stroke-width="1.31372"/>
<g transform="matrix(.05113,0,0,.05113,601.44465,393.7297)">
<path d="m-168.77267,830.90549 214.80158,124.01575 214.80158-124.01575-214.80158-124.01575-214.80158,124.01575z" fill="#808080" fill-rule="evenodd"/>
<path d="m-165.70407,829.13384 217.87017-125.78741v-99.21259l-217.87017,125.7874v99.2126z" fill="#4d4d4d" fill-rule="evenodd"/>
<path d="m30.68594,928.34643 228.14455-132.87401v-17.71654l-228.14455,132.87402v17.71653z" fill="#b3b3b3" fill-rule="evenodd"/>
<path d="m-153.4297,822.04722v-17.71653l184.11564,106.29921v17.71653l-184.11564-106.29921z" fill="#ececec" fill-rule="evenodd"/>
<path d="m30.68594,910.6299-184.11564-106.29921 230.14455-132.87402 184.11564,106.29921-230.14455,132.87402z" fill="#ccc" fill-rule="evenodd"/>
<path d="m-103.8601,802.28647 23.01445,13.2874 203.58941-117.5424-23.01446-13.2874-203.5894,117.5424m38.35742,22.14567 23.01446,13.2874 203.58941-117.5424-23.01445-13.2874-203.58941,117.5424m38.35742,22.14567 23.01446,13.2874 203.58941-117.5424-23.01446-13.2874-203.58941,117.5424m38.35742,22.14567 23.01446,13.2874 203.58941-117.5424-23.01445-13.2874-203.58941,117.5424" fill="#808080" fill-rule="evenodd"/>
<path d="m46.03125,600.59375-214.8125,124 214.8125,124.03125 214.8125-124.03125-214.8125-124zm-15.34375,79.71875 30.6875,17.71875-61.375,35.4375-30.6875-17.71875 61.375-35.4375zm61.375,35.4375 30.6875,17.71875-61.375,35.4375-30.6875-17.71875 61.375-35.4375z" fill="#808080" fill-rule="evenodd"/>
<path d="m46.02891,954.92124v-106.29921l214.80158-124.01575v106.29921l-214.80158,124.01575z" fill="#4d4d4d" fill-rule="evenodd"/>
<path d="m-27.61735,717.51966-3.06859-1.77165 61.37188-35.43307v3.54331l-58.30329,33.66141z" fill="#333" fill-rule="evenodd"/>
<path d="m30.68594,680.31494v3.54331l27.61735,15.94488 3.06859-1.77166-30.68594-17.71653z" fill="#e6e6e6" fill-rule="evenodd"/>
<path d="m-168.78125,724.59375v106.3125l214.8125,124v-106.28125l-214.8125-124.03125zm3.0625,5.3125 208.6875,120.5v99.1875l-208.6875-120.46875v-99.21875z" fill="#e6e6e6" fill-rule="evenodd"/>
<path d="m33.75453,752.95273-3.06859-1.77165 61.37188-35.43307v3.54331l-58.30329,33.66141z" fill="#333" fill-rule="evenodd"/>
<path d="m92.05782,715.74801v3.54331l27.61735,15.94488 3.06859-1.77166-30.68594-17.71653z" fill="#e6e6e6" fill-rule="evenodd"/>
<path d="m33.75453,752.95273 58.30329-33.66141 27.61734,15.94488-58.30328,33.66142-27.61735-15.94489z" fill-rule="evenodd" opacity=".6"/>
<path d="m-27.61735,717.51965 58.30329-33.66141 27.61734,15.94488-58.30328,33.66142-27.61735-15.94489z" fill-rule="evenodd" opacity=".6"/>
<path d="m47.10407,848.00556 211.28651-121.99536" fill="none" filter="url(#filter3406-4)" opacity=".24" stroke="#fff" stroke-width="4"/>
</g>
<path d="m617.19248,417.71302c-.47841.27621-.48947.74039-.0849,1.14446l-2.29065,1.32251c-.0589.0339-.0968.0788-.11001.13003l-.91345,3.59337-.73609.42498c-.71567-.25803-1.55754-.26063-2.05204.0249-.60292.3481-.46159.99472.31547,1.44336s1.89704.53022 2.49997.18213c.47731-.27558.48705-.7392.0853-1.14262l.92603-.53465 .005.001 .00059-.005 2.05601-1.18703 .002.003 5.55496-.47168c.0893-.007.1676-.0287.22702-.0625l2.09372-1.20881 .57604.33258 .28803.16629 .22348-.12902 1.75989-1.01608 .22348-.12903-.28802-.16629-2.12058-1.22431-.28802-.16629-.22348.12902-1.7599,1.01608-.22348.12903 .28803.16629 .68045.39286-2.00293,1.15639-3.67561.31163 7.8888-4.55461 1.10889.64022 .39784.22969 .0702-.26915 .5233-2.06065 .0716-.26997-.46799.0395-3.57235.3019-.46619.0405 .39783.22969 1.07289.61943-10.118,5.84163 .63605-2.50198 2.1873-1.26284c.71466.25637 1.55361.25874 2.04704-.0261 .60292-.3481.46339-.99368-.31366-1.44232s-1.89705-.53023-2.49997-.18213" opacity=".7655"/>
</g>
</svg>
